<svg height="32" viewBox="0 0 32 32" width="32" xmlns="http://www.w3.org/2000/svg">
                        <path clip-rule="evenodd" d="M25.5 15H19V8.5c0-.3-.2-.5-.5-.5h-13c-.3 0-.5.2-.5.5v16c0 .3.2.5.5.5h13c.3 0 .5-.2.5-.5V18h6.5c.8 0 1.5-.7 1.5-1.5s-.7-1.5-1.5-1.5zm0 2H10.7c1.2 1 4.1 4.1 4.1 4.1.2.2.2.5 0 .7s-.5.2-.7 0l-5-5c-.2-.2-.2-.5 0-.7l5-5c.2-.2.5-.2.7 0s.2.5 0 .7L10.7 16h14.8c.3 0 .5.2.5.5s-.2.5-.5.5z" fill="currentColor" fill-rule="evenodd"></path>
                     </svg>
<svg height="30" viewBox="0 0 284 29" width="232" xmlns="http://www.w3.org/2000/svg">
                        <g fill="none" fill-rule="evenodd">
                           <path d="M166.522 6.864a6.602 6.602 0 0 0 0 0M145.744 11.44c1.808.397 3.31 1.16 4.346 2.208 1.228 1.246 1.849 2.9 1.849 4.918v1.052c0 5.585-4.69 8.086-9.34 8.086-2.971 0-5.54-.946-7.232-2.659-1.381-1.397-2.11-3.273-2.11-5.427v-1.052c0-2.02.624-3.672 1.851-4.918 1.052-1.062 2.586-1.834 4.431-2.228l-.089-.403c-1.924.407-3.529 1.217-4.64 2.342-1.308 1.324-1.97 3.074-1.97 5.207v1.052c0 2.262.77 4.242 2.228 5.716 1.771 1.794 4.448 2.785 7.531 2.785 4.858 0 9.758-2.63 9.758-8.501v-1.052c0-2.131-.663-3.882-1.968-5.207-1.094-1.105-2.67-1.91-4.554-2.325l-.09.406zM147.016 8.635a.446.446 0 0 0 .443-.449.446.446 0 0 0-.443-.452.448.448 0 0 0-.446.452c0 .248.2.449.446.449M146.46 7.192a.45.45 0 0 0-.65.072c-.047.056-.076.22-.08.228l-.059.354a3.088 3.088 0 0 0-.494-.277l.293-.251c.002-.01.14-.131.165-.207a.51.51 0 0 0-.304-.664c-.261-.09-.544.049-.641.338-.026.073.007.256.005.265l.076.361a5.747 5.747 0 0 0-.626-.17l.26-.325c.004-.011.13-.175.14-.26.054-.336-.158-.618-.46-.665-.302-.045-.585.162-.636.497-.012.087.06.279.058.291l.154.379c-.21-.03-.429-.05-.652-.061a.837.837 0 0 0 .348-.671c0-.45-.37-.896-.759-.896-.387 0-.757.447-.757.896 0 .28.145.527.354.671a8.56 8.56 0 0 0-.667.063l.154-.38c-.002-.013.07-.205.06-.292-.05-.335-.333-.542-.636-.497-.302.047-.509.329-.461.664.012.086.137.25.139.26l.268.33a5.4 5.4 0 0 0-.634.17l.076-.365c-.002-.009.033-.192.006-.265-.096-.29-.38-.428-.641-.338-.261.092-.4.375-.303.664.022.076.161.198.163.207l.297.253a3.037 3.037 0 0 0-.496.282l-.058-.361c-.003-.007-.036-.172-.081-.228-.176-.212-.46-.235-.652-.072a.468.468 0 0 0-.042.663c.045.053.201.113.208.12l.344.12c-.04.041-.072.081-.105.122.908-.158 2.231-.335 3.486-.335 1.42 0 2.539.204 3.487.398a1.505 1.505 0 0 0-.146-.187l.335-.118c.005-.007.16-.067.206-.12a.465.465 0 0 0-.041-.663M138.174 8.635a.447.447 0 0 1-.445-.449c0-.251.2-.452.445-.452.247 0 .446.2.446.452 0 .248-.2.449-.446.449" fill="#FFF"></path>
                           <path d="M142.6 5.21c.348 0 .688.236.86.545V4.71l-.514.083.118-.473h-.929l.118.473-.515-.083v1.045c.174-.309.513-.546.862-.546M146.697 9.177c0-.137-.14-.264-.393-.38l-.03.567-.424-.291-.21.757.527-.007c-.103.239-1.065.851-1.485-.043-.14-.332.149-.492.26-.449.178.049.234.185.196.264.455-.077.544-.59-.154-.786-.293-.077-.32-.266-.356-.419v-.016c-.06.146-.082.336-.382.36-.721.071-.697.603-.261.76-.029-.087.034-.217.22-.236.115-.024.34.176.146.477-.16.27-1.199.742-1.59-.53.29.01.554.067.699.327v-.861l-.514.082.117-.474h-.929l.118.474-.512-.082v.861c.143-.256.402-.316.69-.326-.393 1.27-1.43.798-1.592.53-.192-.302.03-.502.148-.478.185.02.243.149.221.237.435-.158.46-.69-.262-.762-.3-.023-.32-.213-.384-.359l.002.016c-.038.153-.064.342-.355.419-.7.195-.609.709-.154.786-.042-.079.016-.215.192-.264.116-.043.402.117.264.45-.422.893-1.383.28-1.488.042l.529.007-.209-.757-.425.29-.058-.552c-.232.11-.362.237-.362.366l.365.747c.077.228.15.328.071.56.273.172.353.472.188.799 0 .41 1.556.745 3.475.745h.002c1.92 0 3.475-.334 3.475-.745-.165-.327-.087-.627.186-.8-.076-.23-.002-.331.073-.56l.365-.746zm-4.097 2.569c-1.557 0-2.821-.208-2.821-.463s1.264-.463 2.82-.463c1.558 0 2.82.208 2.82.463s-1.262.463-2.82.463zM115.755 8.412a.37.37 0 0 0 .365-.371.37.37 0 0 0-.365-.374.37.37 0 0 0-.368.374c0 .203.165.371.368.371M115.303 7.218c-.159-.134-.392-.114-.54.06-.035.045-.06.183-.066.19l-.045.293a2.582 2.582 0 0 0-.411-.23l.242-.208c.004-.008.118-.112.138-.17.081-.242-.035-.478-.252-.552-.215-.075-.45.041-.53.28-.022.061.007.212.003.22l.064.299a4.506 4.506 0 0 0-.524-.142l.221-.271c.002-.01.105-.14.116-.212.042-.278-.132-.513-.382-.551-.252-.038-.485.135-.527.413-.009.072.049.231.049.239l.127.312a8.466 8.466 0 0 0-.54-.05.688.688 0 0 0 .29-.555c0-.372-.308-.742-.628-.742s-.629.37-.629.742c0 .23.122.436.292.555a8.55 8.55 0 0 0-.55.052l.124-.314c0-.008.062-.167.05-.24-.04-.277-.272-.45-.524-.412-.252.038-.424.273-.382.551.01.072.114.203.116.212l.22.273a4.404 4.404 0 0 0-.523.143l.06-.301c0-.01.029-.16.007-.221-.081-.239-.315-.355-.53-.28-.216.074-.333.31-.252.551.02.06.134.163.136.17l.244.21a2.565 2.565 0 0 0-.409.234l-.047-.298c-.005-.007-.029-.145-.067-.19-.147-.174-.382-.194-.54-.06-.159.133-.18.37-.034.548.036.045.165.093.17.099l.284.099c-.03.035-.06.066-.086.104.753-.133 1.846-.282 2.888-.282 1.175 0 2.1.17 2.884.334a1.053 1.053 0 0 0-.121-.158l.279-.097c.005-.006.134-.054.17-.099.147-.178.125-.415-.035-.548M108.434 8.412a.37.37 0 0 1-.368-.371.37.37 0 0 1 .368-.374.37.37 0 0 1 .367.374.37.37 0 0 1-.367.371" fill="#FFF"></path>
                           <path d="M112.108 5.576c.288 0 .569.193.714.45v-.863l-.428.068.098-.391h-.768l.096.39-.427-.067v.863c.145-.257.426-.45.715-.45M115.5 8.861c0-.111-.116-.22-.324-.316l-.028.469-.349-.239-.174.627.437-.006c-.087.198-.882.704-1.232-.036-.114-.274.123-.407.218-.371.146.04.193.152.16.219.377-.065.452-.49-.126-.652-.243-.063-.264-.219-.295-.346v-.015c-.05.122-.067.28-.317.3-.598.06-.576.5-.216.628-.021-.073.026-.18.182-.195.097-.018.282.143.123.395-.134.222-.993.612-1.317-.438.24.009.457.055.578.27v-.714l-.424.068.096-.391h-.768l.096.391-.425-.068v.715c.12-.216.335-.26.57-.271-.322 1.05-1.18.66-1.316.438-.16-.252.025-.413.125-.395.152.016.203.122.18.195.36-.129.381-.569-.216-.628-.249-.02-.267-.178-.317-.3v.015c-.031.127-.053.283-.294.346-.58.162-.505.587-.128.652-.033-.067.014-.18.163-.22.092-.035.331.098.215.372-.35.74-1.144.234-1.231.036l.435.006-.17-.627-.352.239-.049-.456c-.192.093-.299.194-.299.303l.303.62c.061.186.123.27.06.461.226.145.733.643.733.643 0 .2.445.432.445.432.248-.863 1.302-.746 1.949-.746h.604c.85 0 1.469.17 1.442.746.458-.11.347-.371.547-.518.23-.175.117-.412.345-.557-.065-.19-.003-.275.058-.461l.303-.62zM116.615 23.224c.645.15 2.512.15 2.98.1.298-.15.745-.955.943-1.558.048-.15-.198-.503-.198-.503 0 .151.098.302.049.503-.101.201-.22.695-.865 1.449l-2.909.009zM108.41 23.666c.55 0 1.056.124 1.303.563.193.356.081.92-.375 1.185a1.637 1.637 0 0 1-.831.223h-1.313v-.063c.205 0 .322-.093.322-.244v-1.357c0-.151-.117-.246-.322-.246v-.061h1.217zm-.265 1.7c0 .161.005.178.168.178.554 0 .663-.246.724-.377.163-.352.154-.98-.145-1.248-.195-.17-.354-.16-.579-.16-.163 0-.168.014-.168.176v1.43zM111.08 25.69c-.003.148.113.261.365.302v.06l-1.358-.234v-.06c.255.044.37-.028.371-.175l.01-1.316c0-.147-.113-.259-.367-.303v-.06l1.36.236-.002.059c-.255-.043-.37.03-.37.176l-.01 1.316zM126.546 25.512c0 .138.114.251.317.285v.058l-1.25-.225v-.055c.202.037.318-.033.318-.174v-1.476c-.096-.015-.345-.094-.56.027-.188.102-.185.233-.206.301l-.086-.016v-.55l2.316.416v.549l-.085-.016c-.021-.074-.014-.205-.206-.374-.216-.197-.465-.206-.558-.226v1.476zM116.768 26.548c0 .517-.453.625-1.103.488-.683-.143-.956-.527-.956-.74v-1.15c0-.153-.12-.27-.328-.305v-.061l1.287.222v.061c-.208-.037-.327.04-.327.189v1.054c0 .215.06.463.364.583.27.104.907.205.907-.36v-1.054c0-.153-.109-.266-.317-.306v-.06l.791.136v.063c-.206-.036-.318.04-.318.192v1.048zM112.665 26.038c-.005.14.015.183.208.224.536.122.832.052 1.114-.296l.101.018-.186.531-2.157-.359.004-.057c.196.032.313-.038.317-.178l.052-1.282c.008-.14-.103-.25-.298-.282l.001-.057 2.13.356-.024.565-.078-.014c-.03-.1-.047-.47-.637-.582l-.324-.06c-.136-.024-.163-.003-.17.135l-.024.627c.435.054.504.022.638-.303l.08.012-.037.907-.08-.013c-.106-.366-.172-.422-.604-.511l-.026.619zM123.29 25.142c-.005.14.017.181.207.207.538.073.835-.024 1.116-.397l.103.005-.188.553-2.159-.167.004-.057c.197.014.315-.067.32-.209l.051-1.283c.007-.142-.103-.24-.3-.255l.003-.058 2.13.164-.026.565-.074-.003c-.033-.097-.047-.47-.64-.525l-.323-.032c-.136-.012-.165.01-.169.15l-.025.627c.434.015.503-.023.637-.36l.08.005-.036.91-.08-.005c-.105-.357-.172-.406-.605-.456l-.025.621z" fill="#FFF"></path>
                           <path d="M173.957 24.339c.056.034.114.072.18.11-.028-.067-.088-.103-.18-.11" fill="#231F20"></path>
                           <path d="M164.518 25.294l-1.56-1.373V25c0 .131.097.215.284.215v.054h-.707v-.054c.185 0 .283-.084.283-.215v-1.2l-.13-.116c-.051-.041-.086-.095-.18-.095v-.054h.744l1.23 1.099v-.828c0-.133-.098-.217-.283-.217v-.054h.705v.054c-.185 0-.283.084-.283.217v1.488h-.103zM161.924 25.25a1.783 1.783 0 0 1-.72.232 1.594 1.594 0 0 1-.721-.106.786.786 0 0 1-.505-.74c0-.315.182-.638.505-.827.233-.131.483-.208.72-.23.238-.02.486.013.721.108.319.126.503.42.503.736a.977.977 0 0 1-.503.828m-.503.106c.143-.067.239-.176.322-.365.054-.12.089-.312.089-.515s-.035-.388-.089-.501c-.083-.172-.18-.264-.322-.305a.63.63 0 0 0-.218-.024.663.663 0 0 0-.217.063c-.143.063-.24.173-.322.36-.055.12-.089.317-.089.515 0 .202.034.391.089.502.081.173.18.268.322.305a.547.547 0 0 0 .217.02.681.681 0 0 0 .218-.055" fill="#FFF"></path>
                           <path d="M159.703 25.37c0 .136.11.205.292.172v.056l-1.145.206v-.054c.183-.034.29-.138.288-.274l-.005-1.28-.895 1.721-.081.015-.882-1.404.007 1.285c.002.137.103.205.286.173v.052l-.706.13v-.055c.187-.032.282-.136.282-.273l-.007-1.226c0-.188-.094-.21-.32-.17v-.056l.896-.164.683 1.1.704-1.35.882-.162v.053c-.181.034-.288.139-.288.275l.009 1.23zM182.383 24.853c0 .141.11.231.346.231v.056h-1.28v-.056c.237 0 .35-.09.35-.231V23.58c0-.14-.113-.232-.35-.232v-.056h1.28v.056c-.236 0-.346.092-.346.232v1.273zM177.469 24.637l-.092.01.038.565c.009.138.125.211.318.188l.006.057-1.208.153-.004-.056c.196-.025.301-.129.294-.267l-.084-1.251c-.009-.14-.13-.216-.322-.19l-.005-.056 1.17-.15c.29-.035.662-.042.872.078.163.095.265.3.127.486-.114.153-.279.237-.502.307l.757.654c.113.095.149.077.194.07l.004.057-.737.094-.826-.749zm-.1-.075c.185-.026.545-.04.643-.29.05-.14.01-.36-.049-.423-.08-.088-.213-.158-.494-.102-.074.014-.148.055-.141.129l.041.686zM180.804 25.033a1.69 1.69 0 0 1-.688.235 1.489 1.489 0 0 1-.69-.11.788.788 0 0 1-.482-.737c0-.32.176-.643.482-.83.223-.132.462-.21.69-.23a1.49 1.49 0 0 1 .688.109c.306.125.483.42.483.737a.98.98 0 0 1-.483.826m-.482.106c.136-.066.23-.178.31-.364a1.39 1.39 0 0 0 .085-.516c0-.202-.033-.39-.085-.5-.08-.175-.174-.266-.31-.307a.55.55 0 0 0-.413.04c-.135.064-.231.173-.31.364-.05.116-.084.312-.084.515 0 .199.034.388.085.499.078.174.174.266.31.305a.527.527 0 0 0 .206.022.694.694 0 0 0 .206-.058M184.355 25.021c0 .14.108.244.293.266v.059l-1.155-.14v-.057c.188.021.291-.056.291-.194v-1.476c-.083-.007-.317-.07-.518.064-.173.114-.17.245-.188.313l-.078-.01v-.548l2.142.258v.546l-.078-.01c-.018-.071-.014-.202-.19-.358-.2-.18-.432-.173-.52-.187v1.474zM169.61 16.104c.13.262.053.524-.218.698l-.015.03c.766.294 1.74.787 2.767 1.41 1.025.625 1.91 1.271 2.524 1.819a.1.1 0 0 0 .024-.025c.021-.323.217-.517.505-.524.043-.21.146-.252.306-.388l.619-.404c.06-.103.013-.266-.127-.472l-.282.416-.19-.418-.504.481.406.24c-.188.133-1.199.155-1.114-.725.044-.314.335-.305.402-.22.114.121.096.249.03.292.38.153.682-.197.24-.671-.19-.194-.125-.35-.081-.487l.01-.009c-.115.08-.217.217-.46.097-.579-.28-.805.135-.543.456.02-.077.125-.149.276-.077.1.036.18.292-.102.43-.25.132-1.253.01-.972-1.143.213.144.39.309.384.576l.389-.659-.43-.174.303-.307-.706-.43-.127.412-.353-.301-.39.657c.225-.13.45-.052.675.072-.875.788-1.453-.056-1.454-.334-.01-.323.251-.368.33-.293.133.095.119.226.06.278.404.087.662-.308.144-.7-.218-.158-.147-.314-.129-.456l-.005.015c-.098.104-.203.233-.462.156-.621-.176-.784.258-.474.528.007-.081.11-.157.27-.11.104.018.25.275-.004.461-.73.487-1.183-.429-1.154-.657l.4.252.183-.675-.454.023.206-.449c-.228-.021-.384.01-.442.111l-.061.74c-.047.207-.033.32-.2.458M161.399 21.611c.393-1.127.856-2.056 1.056-2.375a.253.253 0 0 0-.076-.347.246.246 0 0 0-.343.077c-.22.352-.695 1.302-1.104 2.478a.252.252 0 0 0 .152.32.244.244 0 0 0 .315-.153M162.94 18.485c.5-.912 1.583-1.786 2.002-1.982a.248.248 0 0 0 .123-.33.245.245 0 0 0-.33-.124c-.494.23-1.662 1.158-2.229 2.192a.258.258 0 0 0 .098.343c.118.066.27.021.337-.1M165.75 16.083c1.165-.138 2.052-.187 2.637-.15a.252.252 0 0 0 .033-.5c-.614-.043-1.532.009-2.727.15a.25.25 0 0 0-.218.28c.015.137.14.236.276.22M163.475 18.036l-.031.047c-.297.436-.994 1.463-1.22 2.063-.051.129.014.274.14.325a.251.251 0 0 0 .323-.146c.205-.544.904-1.57 1.166-1.959l.033-.046a.25.25 0 0 0-.067-.349.246.246 0 0 0-.344.065" fill="#FFF"></path>
                           <path d="M164.649 17.526l.147-.11c.438-.316.853-.615 1.995-.747a.246.246 0 0 0 .22-.274.247.247 0 0 0-.276-.223c-1.273.144-1.778.512-2.225.839l-.143.104a.252.252 0 0 0-.064.35c.082.113.234.14.346.06" fill="#FFF"></path>
                           <path d="M165.984 17.54c.51-.14 1.88-.262 2.403-.214a.25.25 0 0 0 .268-.23.246.246 0 0 0-.223-.269c-.587-.057-2.008.072-2.578.228a.251.251 0 0 0-.174.309.245.245 0 0 0 .304.176M164.981 17.496c-.373.268-1.133 1.19-1.307 1.542a.255.255 0 0 0 .112.34c.124.06.272.01.332-.115.128-.255.83-1.128 1.153-1.358a.255.255 0 0 0 .054-.351.245.245 0 0 0-.344-.058M163.204 19.917a3.47 3.47 0 0 1-.206.426c-.192.359-.451.845-.686 1.62a.248.248 0 0 0 .166.313c.13.043.27-.03.31-.165.22-.727.467-1.188.646-1.53a3.65 3.65 0 0 0 .236-.486.251.251 0 0 0-.145-.323.248.248 0 0 0-.32.145M162.695 22.938a.252.252 0 0 0-.145-.323.247.247 0 0 0-.318.147 3.284 3.284 0 0 1-.133.28l.596-.104zM167.708 16.537h1.986a.248.248 0 0 0 .247-.251.25.25 0 0 0-.247-.252h-1.986a.251.251 0 0 0 0 .503M149.622 12.519h-14.4V22.919c0 1.395.847 2.472 2.584 3.294l.009.004.005.003 4.634 1.945.063.027H142.673l.065-.027 4.634-1.945.009-.003.007-.004c1.736-.822 2.58-1.9 2.58-3.294V12.519h-.346zm-2.526 13.053l-4.501 1.89-4.5-1.89c-1.952-.924-2.176-1.955-2.176-2.653v-9.695h13.357v9.695c0 .698-.228 1.729-2.18 2.653z" fill="#FFF"></path>
                           <path d="M142.496 27.812h.21V13.088h-.21z" fill="#FFF"></path>
                           <path d="M135.78 19.808h13.703V19.6H135.78zM148.547 18.699v-4.827h-5.025v4.931h5.025v-.104zm-4.815 0v-4.727l-.108.104h4.816l-.101-.104v4.727l.101-.104h-4.816l.108.104z" fill="#FFF"></path>
                           <path d="M143.631 14.275a.285.285 0 0 0 .285-.287.285.285 0 1 0-.569 0c0 .16.127.287.284.287M143.631 18.981a.284.284 0 0 0 .285-.285.285.285 0 0 0-.285-.29.285.285 0 0 0-.284.29c0 .158.127.285.284.285M148.44 18.981a.284.284 0 0 0 .285-.285.284.284 0 0 0-.567 0c0 .158.125.285.283.285M148.44 14.268c.158 0 .285-.129.285-.287a.286.286 0 0 0-.284-.29.285.285 0 0 0-.283.29c0 .158.125.287.283.287M145.774 13.974l.23.233.23-.233-.23-.232zM145.774 18.7l.23.234.23-.233-.23-.234zM143.398 16.337l.23.234.23-.234-.23-.231zM148.213 16.337l.23.234.23-.234-.23-.231zM146.312 17.219c-.212-.002-.366-.065-.451.262-.063.181.004.316-.391.505l-.442.206c-.262.106-.465-.038-.056-.237.277-.135.469-.212.527-.438.049-.237-.149-.574.262-.65.335-.043.475-.205.115-.506-.066-.063-.176.029-.399.13l-.65.326c-.195.097-.42-.144.053-.357l.57-.262c.235-.139.201-.232-.009-.383l-.666-.574c-.256-.227-.1-.395.211-.155l.5.415c.15.117.51-.07.476-.27-.052-.217-.202-.72.16-.712.199 0 .76-.119.623.284l-.34 1.095c-.084.526.287.955.385.413l.087-.943c.027-.341.753-.424.751.106l-.097 1.391c-.024.29-.201-.025-.328-.253-.152-.34.022-.24.096-.149l.056-.932c0-.188-.236-.188-.236 0l-.061.934c-.007.17-.183.2-.308.426-.063.114.047.33.248.403.216.123.408.017.433.243.018.196.205.643.067.766-.114.117-.188-.08-.228-.298 0-.16-.118-.386-.254-.41-.2-.028-.523.09-.704-.376M138.395 14.671h2.48c.278 0 .287-.303 0-.303h-1.433c-.212 0-.195-.248 0-.248h1.449c.275 0 .632.187.414.575-.049.088-.049.125.065.176 0 0 .03.032.29.172.196.04.223.316.237.41.033.193-.22.183-.282.028-.013-.1-.05-.206-.19-.255l-.435-.136-.556.283c-.116.08-.23.164-.458.164h-.673c-.212 0-.216-.22 0-.22h.51c.062 0 .228-.098.366-.238h-1.327c-.335 0-.442.063-.824.172l-1.065.277c-.226.064-.302-.144-.061-.221l.49-.14c.292-.088.256-.232-.097-.411l-.495-.255c-.203-.092-.114-.334.114-.22l.63.308c.182.09.308-.032.243-.214-.103-.235-.034-.567.152-.567.188 0 .784-.104.569.253-.075.158-.395.603-.113.61M138.395 16.544h2.48c.278 0 .287-.303 0-.303h-1.433c-.212 0-.195-.246 0-.246h1.449c.275 0 .632.185.414.569-.049.091-.049.129.065.18 0 0 .03.032.29.172.196.04.223.314.237.407.033.196-.22.185-.282.03-.013-.102-.05-.204-.19-.258l-.435-.134-.556.283c-.116.08-.23.164-.458.164h-.673c-.212 0-.216-.22 0-.22h.51c.062 0 .228-.098.366-.238h-1.327c-.335 0-.442.063-.824.174l-1.065.275c-.226.064-.302-.144-.061-.22l.49-.14c.292-.09.256-.233-.097-.41l-.495-.256c-.203-.091-.114-.335.114-.219l.63.307c.182.092.308-.035.243-.213-.103-.235-.034-.57.152-.57.188 0 .784-.102.569.256-.075.156-.395.603-.113.61M138.395 18.415h2.48c.278 0 .287-.305 0-.305h-1.433c-.212 0-.195-.246 0-.246h1.449c.275 0 .632.186.414.572-.049.09-.049.128.065.178 0 0 .03.032.29.172.196.04.223.315.237.41.033.194-.22.181-.282.028-.013-.102-.05-.206-.19-.256l-.435-.135-.556.284c-.116.079-.23.163-.458.163h-.673c-.212 0-.216-.219 0-.219h.51c.062 0 .228-.099.366-.239h-1.327c-.335 0-.442.063-.824.173l-1.065.276c-.226.063-.302-.144-.061-.22l.49-.14c.292-.089.256-.232-.097-.412l-.495-.257c-.203-.09-.114-.332.114-.217l.63.307c.182.09.308-.034.243-.215-.103-.234-.034-.566.152-.566.188 0 .784-.106.569.253-.075.157-.395.604-.113.61M145.023 20.904h2.479c.28 0 .291-.305 0-.305h-1.43c-.214 0-.196-.248 0-.248h1.444c.28 0 .636.189.418.573-.05.092-.05.13.066.178 0 0 .027.034.29.174.193.04.218.312.237.408.032.195-.223.183-.287.028-.01-.1-.048-.203-.188-.255l-.433-.136-.56.284c-.113.079-.227.163-.455.163h-.674c-.212 0-.215-.22 0-.22h.51c.064 0 .227-.098.368-.24h-1.329c-.335 0-.44.067-.822.174l-1.066.277c-.227.065-.303-.142-.062-.22l.493-.141c.291-.09.253-.232-.098-.41l-.496-.256c-.203-.09-.113-.332.116-.22l.63.31c.177.091.304-.036.24-.214-.1-.235-.032-.569.153-.569.188 0 .785-.102.568.255-.074.158-.393.603-.112.61M145.023 22.845h2.479c.28 0 .291-.305 0-.305h-1.43c-.214 0-.196-.246 0-.246h1.444c.28 0 .636.187.418.573-.05.09-.05.127.066.18 0 0 .027.03.29.17.193.04.218.316.237.411.032.194-.223.181-.287.027-.01-.1-.048-.205-.188-.257l-.433-.134-.56.283c-.113.081-.227.164-.455.164h-.674c-.212 0-.215-.221 0-.221h.51c.064 0 .227-.097.368-.237h-1.329c-.335 0-.44.064-.822.172l-1.066.277c-.227.064-.303-.144-.062-.221l.493-.14c.291-.088.253-.232-.098-.411l-.496-.257c-.203-.09-.113-.33.116-.217l.63.308c.177.088.304-.035.24-.217-.1-.233-.032-.565.153-.565.188 0 .785-.104.568.253-.074.156-.393.601-.112.61M147.083 24.288h-1.014c-.194 0-.21.246 0 .246h.998c.291 0 .282.305 0 .305h-2.043c-.284-.009.038-.454.11-.612.216-.355-.38-.255-.566-.255-.187 0-.255.336-.152.571.063.178-.064.305-.241.212l-.634-.307c-.228-.115-.317.127-.116.219l.498.257c.353.18.373.212.1.48l-.496.55c-.267.253-.212.368.016.304l1.112-.839c.16-.149.717-.152.717-.142l-.109.272-.355.27c-.07.05-.168.151-.12.223a.16.16 0 0 0 .222.03l.422-.319c.027-.021.367-.35.497-.504h.504v.005l-.062.113-.293.214a.157.157 0 0 0-.03.222c.052.07.15.027.218-.025l.417-.317a.152.152 0 0 0 .063-.126l.058-.086h.232c.612 0 .923-.96.047-.96M252.864 2.583c.454-.001.66-.719.783-1.024h1.362c-.042.535-.042 1.446-.042 2.403 0 .763.165 4.587.206 5.504h-1.361l-.002-.014c-1.079-3.516-3.884-7.693-9.819-7.693-6.272 0-10.685 5.353-10.685 12.504 0 5.66 2.97 13.038 10.77 13.038 2.474 0 4.949-.727 6.519-2.487.123-1.682.041-6.007.041-6.849l-3.922-.152-.04-1.185c1.033 0 2.188.04 3.55.04 3.465 0 5.495-.078 7.722-.155v1.222c-2.104.117-2.269.307-2.269 1.034v5.74c-4.041 2.485-8.302 4.167-13.212 4.167-7.18 0-14.689-4.854-14.689-14.03 0-8.03 5.983-14.11 15.016-14.11 5.612 0 9.45 2.044 10.072 2.047zM29.564 26.869l2.7-.075c.075-2.027.117-2.523.117-7.419 0-12.923 0-14.337-.118-16.901l-2.7-.075V1.176c1.005 0 2.584.075 5.438.075 2.854 0 4.436-.075 5.4-.075v1.223l-2.932.075c-.078 2.41-.078 8.45-.078 11.244H51.63c0-2.793 0-8.835-.118-11.244l-2.97-.075V1.136c1.004.078 2.584.115 5.438.115 2.892 0 4.438-.075 5.438-.075v1.223l-2.736.075c-.042 2.066-.042 2.564-.042 7.418 0 12.925 0 14.38.08 16.902l2.698.075v1.226c-1 0-2.582-.075-5.438-.075-2.854 0-4.434.075-5.437.075V26.87l2.97-.075c.117-2.41.117-9.063.117-11.93H37.39c0 8.565 0 9.52.078 11.93l2.932.075v1.264c-.964-.077-2.546-.113-5.4-.113-2.854 0-4.433.075-5.437.075V26.87zM16.549 2.232c-.038 2.063-.076 2.677-.076 7.682 0 12.927 0 14.342.076 16.866l2.932.077v1.22c-1.004 0-2.901-.075-5.91-.075-2.97 0-4.511.076-5.512.076v-1.221l2.927-.077c.078-2.027.118-2.524.118-7.419 0-13 0-14.414-.118-17.129L7.294 2.23c-3.2 0-3.934.307-4.126.65-.232.46-.424 3.979-.462 4.744H.894L.546 1.16c4.318.04 8.445.076 13.033.076h.377c4.592 0 8.715-.036 13.035-.076l-.347 6.464H24.83c-.038-.765-.232-4.284-.463-4.744-.192-.343-.926-.648-4.125-.648h-3.694zM84.468 21.059l-1.852 5.887h-9.108c-3.47 0-3.701-.23-3.815-1.72-.078-1.223-.078-8.871-.078-10.82h.764c1.197 0 5.552 0 6.015.342.496.388.504 1.038.716 3.646h1.816c-.047-2.044-.14-3.612-.14-5.326 0-1.262.053-2.496.09-3.683h-1.705c-.14 2.456-.44 3.442-.967 3.72-.425.228-3.087.306-5.825.306h-.764V2.245h7.533c1.082 0 3.74 0 4.744.458.927.5 1.005 1.38 1.195 4.208h1.852V1.177c-1.698 0-13.202.112-15.056.112-4.239 0-6.36-.076-8.557-.112v1.221l3.161.117c.114 2.52.114 3.937.114 16.862 0 4.894-.038 5.39-.114 7.416l-3.161.075v1.225c1.81 0 9.446-.076 11.838-.076h12.461l.54-6.958h-1.697zM281.866 21.059l-1.852 5.887h-9.106c-3.473 0-3.703-.23-3.817-1.72-.078-1.223-.078-8.871-.078-10.82h.764c1.195 0 5.553 0 6.015.342.496.388.503 1.038.715 3.646h1.815c-.046-2.044-.142-3.612-.142-5.326 0-1.262.057-2.496.095-3.683h-1.708c-.138 2.456-.44 3.442-.967 3.72-.425.228-3.085.306-5.823.306h-.764V2.245h7.534c1.08 0 3.737 0 4.742.458.926.5 1.004 1.38 1.194 4.208h1.854V1.177c-1.697 0-13.204.112-15.056.112-4.24 0-6.361-.076-8.56-.112v1.221l3.162.117c.114 2.52.114 3.937.114 16.862 0 4.894-.036 5.39-.114 7.416l-3.162.075v1.225c1.813 0 9.449-.076 11.839-.076h12.463l.54-6.958h-1.697zM216.783 17.466c0 .113-.206.23-.492.266h-8.277c-.578 0-.743-.111-.743-.228 0-.113.084-.268.165-.535l4.507-10.955c.125-.228.165-.42.248-.42.082 0 .206.192.248.344l.024.056 4.155 10.975c.125.305.165.382.165.497m9.986 8.494a36.882 36.882 0 0 1-1.693-3.4L215.463.534h-2.443l-5.734 13.882c-.784 1.91-4.58 10.478-5.076 11.357-.6 1.06-1.043.918-3.313 1.108v1.223c.825-.04 3.149-.117 4.594-.117 1.278 0 2.558.077 3.712.117V26.88c-3.093-.038-3.383-.19-3.383-.614 0-.153.167-.61.371-1.145l2.264-5.629c.248-.574.37-.687.907-.687h9.367c.744 0 .827 0 1.073.57l2.488 6.09c.165.383.29.724.29.954 0 .193-.29.384-3.714.461v1.223c3.216-.076 4.623-.117 6.148-.117 2.229 0 4.706.041 6.524.117v-1.3c-1.601 0-2.398-.19-2.769-.844M139.12 20.452c-.259 0-.476.023-.561.305-.098.286-.364.625-.6.722a.687.687 0 0 1-.025-.456c.082-.366-.168-.472-.37-.472-.166 0-.242.005-.345.16-.103.154-.28.486.027.619.364.169.017.592-.105.79-.371.528.3 2.036 1.145 2.46l3.386 1.544v-5.672h-2.552zm.058 4.273c-.387-.205-1.151-.946-1.284-2.338 0-.035 0-.066.004-.1l3.47 3.44-2.19-1.002zm2.264.648l-3.444-3.391a.44.44 0 0 1 .306-.196.49.49 0 0 0 .114-.072l3.024 3v.66zm0-1.086l-2.823-2.783c.096-.126.197-.257.333-.33l2.49 2.46v.653zm0-1.08l-2.164-2.12c.172-.026.353-.037.568-.064l1.596 1.585v.6zm0-1.024l-1.233-1.212a6.05 6.05 0 0 0 1.233-.395v1.607z" fill="#FFF"></path>
                           <path d="M194.867 24.397h-9.14v-1.201c-.69-.173-2.296-.426-3.9-.474-.133-.169-.93-.805-1.257-1.074-.529-.301-2.088-.5-2.814-.1-.864.47-1.84.813-2.7.88.065-.202.116-1.213.016-1.415-.231-.27-.463-.604-.498-.907l.334-.268c1.555 1.577 1.687.984 2.13.857-.495-.3-.532-.524-.532-.524.745.15 1.677-.03 2.043-.277-.846-.253-.625-.648-.625-.648.895.1 1.677-.388 1.827-.618a1.846 1.846 0 0 1-.731-.818c1.492-.654 1.151-.82 1.555-1.034-.594-.049-.85-.618-.85-.618a5.358 5.358 0 0 0 1.491-.896 1.437 1.437 0 0 1-1.235-.91c1.389-.402 1.43-1.034 1.737-1.544-1.09.201-1.416-.356-1.416-.356 1.34-.702 1.37-1.294 1.253-1.727-1.043.503-1.58.027-1.907-.185.445-.452.688-1.255.699-1.653-.746.352-1.568.14-1.965-.047.346-.953.075-1.55-.092-1.987-.447.551-1.038.608-1.494.684.198-1.257-.105-1.56-.429-1.844-.344.654-.78.664-1.476.695-.447-1.862-.99-1.596-1.403-1.636 0 .503-.422.778-.806 1.042-1.29.603-1.314 1.41-1.436 2.122l-4.566-1.467c-.609-.22-1.007.032-.189.404l4.252 1.881c-.686.09-1 .866-1.568 1.018-.886.323-1.813.453-2.608.918-.639.307-.168 1.165-.595 1.6-.03.276-.105.631.137.816.2.138.504.138.732.155.014.123-.045.185-.089.262-.063.077-.123.215-.032.292.394.481 1.008.866 1.722.634.335-.14.396-.51.702-.725.824-.48 1.584.248 2.224.585-.013.356-.411.48-.411.833 0 .023.005.036.005.054.319-.043.654-.115.918-.233.522-.241 1.427-1.04 1.865-1.485.393-.442.46-1.052.185-1.53a1.04 1.04 0 0 0-.623-.416c-.094.122.043.28.074.416.016.634-.378 1.252-.869 1.575-.898.371-1.48-.433-2.195-.738-.747-.049-1.555-.034-1.875.693-.196.091-.153.26-.38.278-.167.014-.32 0-.428-.172-.076-.293.306-.183.427-.34.2-.044.26-.262.43-.353.074-.325-.278-.34-.444-.48-.337-.093-.76-.046-1.021.14-.122.031-.23-.046-.274-.125-.063-.155.076-.246.103-.384.245-.063.55.046.72-.187a.586.586 0 0 0 0-.553.3.3 0 0 0-.321-.032c-.062.107-.107.138-.214.138-.092-.077 0-.17 0-.278.26-.246.641-.17.945-.324.594-.278 1.356-.185 1.905-.601.17-.03.121.187.2.262-.048.354-.428.433-.672.571.275.092.55-.077.869-.016.746.215 1.555.032 2.18-.323-.046-.216-.304-.325-.413-.51-.502-.277-1.14-.293-1.72-.309.351-.585 1.188-.384 1.812-.524l.61.154c.033-.293 0-.664.11-.957.638.061.56.772.713 1.22.29.03.642-.017.914.17 1.434 1.002 2.151 2.822 1.952 4.691-.228.926-.351 1.898-.943 2.64-.077.277.534.401.18.602l-.016.024.094.21.002-.002.234-.343.232.341c.047.07.085.138.117.203l.018-.027c.201.402.201.637.663.94-.15.06-.465.313-1.021-.07-.304-.164-.435-.105-.435-.105l-.662.341-4.209-2.522c-.13.068-.282.134-.461.194-.417.199-.614.016-1.394-.011.003.028.01.057.01.086a.457.457 0 0 1-.159.307.432.432 0 0 1-.223.099l-.012.01-.093-.007c-.492-.046-1.845.076-2.33.209a.44.44 0 0 1-.503-.216c.032.08.045.169.03.259a.428.428 0 0 1-.096.211v.02l-.083.06c-.121.086-.308.285-.498.502.067-.01.13-.018.19-.021 2.285-.201 4.268-.604 4.815-1.056 1.69.251 3.625 1.558 3.922 1.86 0 .655.15 1.407.398 1.66.594 1.105-.1 2.162-.695 2.464l-.496.172-.149-.122.716-1.106c0-.454-.071-1.309-.12-1.46l-.052 1.26c-.147.65-.643 1.053-.792 1.256-.2-.151-.945-.553-1.144-.706.049-.2.101-.853.101-1.204l-.112-.017c-.125.178-.259.733-.436.871-.21.237-.513.253-.696.508.047.169.317.103.455.22 1.014.493 1.47.857 2.423 1.491.898.596 1.454.831 2.102 1.357.226.135.136.458.165.711-.36.595-1.177.39-1.815.426-.813 0-1.54-.12-2.298.118-.59.288-1.495.629-2.085.085-.287-.221-.634-.374-.951-.56.027-.271.36-.288.543-.424.346-.22.728-.119 1.043.102.12.085.24-.034.346-.102.018-.119.018-.338.185-.338.617.338 1.388.44 2.129.304.123-.068.275-.05.41-.119-.394-.305-.97-.422-1.438-.696-1.478-.356-2.765-.753-4.308-.92-.288-.206-.458-1.014-.5-1.333.02-.58.004-.896.167-1.433.052-.251.35-.354.6-.553l-.2-.1c-.297 0-.992.502-1.291.902 0 0-.07.413-.067.887-.989-.118-2.742-.102-4.154.002.02-.099.176-1.05.326-1.388a.253.253 0 0 0-.121-.332.25.25 0 0 0-.332.124c-.262.589-.311.878-.41 1.63-.003.018-.003.036-.003.054l-.325.032c.03-.136.074-.292.106-.425l.058-.22a.255.255 0 0 0-.183-.304.249.249 0 0 0-.3.181l-.056.215c-.047.189-.109.419-.143.604v.01c-1.63.19-3.173.462-4.176.733.011-.165.011-.32-.002-.463 1.096-.113 3.162-.6 3.578-.785-.364.094-2.575.474-3.607.542a2.387 2.387 0 0 0-.157-.57c1.235-.117 3.527-.598 3.987-.783-.413.093-2.971.486-4.101.546a2.257 2.257 0 0 0-.355-.48c-.103-.1-.21-.188-.32-.266 1.419-.093 3.708-.425 4.193-.569-.458.07-3.276.341-4.55.363l-.07-.032c.124-.18.218-.358.29-.496l.024-.05c.011-.022.02-.043.03-.067.982-.06 2.016-.18 2.304-.269-.237.029-1.257.074-2.225.085.165-.433.193-.916.203-1.394.313.243.671.361 1.086.361h.056l.056-.009c.612-.111 1.061-.185 1.342-.612l.01-.022.014-.021c1.455.375 2.649.436 3.63.363a6.31 6.31 0 0 1 .214-.381l.012-.018.011-.013a.45.45 0 0 1 .257-.168.43.43 0 0 1 .265.023.455.455 0 0 1-.118-.197c-.01-.031-.005-.061-.01-.092-.897.147-2.076.135-4.059-.3.109-.659-.126-1.343-.478-1.81l-.02-.026-.021-.027a.616.616 0 0 1-.082-.1c.887-1.184 2.807-.098 4.069.182 3.355.65 4.45-2.617 3.339-4.693-1.215-2.01-3.332-1.495-5.501-1.064-2.88.477-2.088-1.505-1.53-1.634-1.492.075-1.715 1.429-1.626 2.863-1.018-.35-.91-1.206-.799-1.49-1.49 2.41 1.15 3.41 1.89 3.812 0 0-.934.443-1.137.601-.595-.567-1.287-1.145-1.75-1.294l-.024-.007a3.795 3.795 0 0 0-1.065-.148 2.169 2.169 0 0 0-.501-1.422l-.006-.005-.007-.007-1.74-1.977c-.96-1.104-2.966-.738-3.002.772 0 .08.01.189.027.313-.295-.131-.603-.25-.924-.358l-.028-.01a10.57 10.57 0 0 0-.285-.09c-.014-.006-.029-.01-.04-.013l-.298-.088c-.008 0-.015-.003-.024-.003-.22-.061-.444-.117-.673-.167-.008-.004-.017-.004-.024-.008l-.306-.06c-.024-.006-.049-.01-.076-.015l-.26-.047c-.032-.003-.06-.01-.088-.014a14.727 14.727 0 0 0-.277-.041c-.02-.004-.047-.01-.072-.013-.23-.03-.464-.057-.705-.08l-.092-.006c-.087-.009-.176-.016-.262-.023a3.006 3.006 0 0 1-.124-.008l-.24-.012a3.083 3.083 0 0 0-.129-.007c-.083-.004-.168-.006-.253-.007a2.274 2.274 0 0 0-.115-.004c-.12-.004-.246-.004-.369-.004-2.137 0-4.061.374-5.662 1.078.018-.124.025-.234.025-.313-.032-1.51-2.04-1.876-3.002-.772l-1.742 1.977-.005.007-.004.005a2.19 2.19 0 0 0-.503 1.422 3.795 3.795 0 0 0-1.065.148l-.01.003-.01.004c-.367.116-.869.497-1.354.928-.315-.255-1.353-.472-1.353-.472 1.597-.178 3.095-2.752.221-4.524-3.65-1.507-2.314 2.915-.945 1.055-.992.503-1.04-.702-.24-.702.868 0 .875 1.47-.13 1.426-1.003-.045-1.26-.494-2.353-.693-6.695-1.221-4.877 8.027.12 5.765.794-.36 1.99-1.288 3.322-.952-1.005.932-1.409 2.06-1.271 2.68-1.78.266-5.567-.754-7.164-1.904l.822-.088c-.503-.266-.774-1.641-.774-1.641-.183-.532-.766-1.106-.766-1.106.137-.09.501.043.501.043s.047.357 0-.133c-.045-.485-.543-1.551-.816-1.64.307-.452.409-.805.409-.805-1.047.298-1.094-.4-1.938-.551.21-.148.274-.604.32-.904-.247.25-1.04-.2-1.783.202-.351.2-.299-.052-.896.55h-4.94c-.595-.602-.547-.35-.89-.55-.747-.403-1.543.048-1.791-.202.049.3.432.753.64.902-.396.093-.715.185-.916.42-.197.231-.954.278-.954.278.257.302.657.675.657.675-.534.395-.534 1.142-.613 1.56-.08.419-.475 1.07-.475 1.07.237.049.554.096.791 0-.316.467-1.158 1.96-1.396 3.122 0 0 .516-.122.754-.263.038 1.305.157 2.687.474 3.152l.319-.607c.355.467-.576 1.912-1.45 1.957 0 0-2.135.115-2.534.115-.396 0-.713.235-1.151.512-.437.28-1.433.474-1.706.526-.24.045-.884.2-.895 1.78h-7.052l4.367 1.696-4.367 1.725h15.887v-1.111c1.693.052 3.846.384 6.924 1.163 2.186.539 4.098.618 6.207.618 2.361 0 3.852-1.12 3.884-1.139v-.673a32.02 32.02 0 0 1 4.634.876c.873.255 2.647.717 3.34.717.383.035.774-.062 1.132-.288l.022-.014.022-.016c.307-.226.583-.695.648-1.072.606 0 1.923.84 3.944 1.32 1.365.502 2.895.766 4.53.766.176 0 .35-.003.523-.009.013 0 .024 0 .033-.002 1.427-.052 2.769-.31 3.978-.755 2.019-.48 3.334-1.32 3.94-1.32.067.377.344.846.654 1.072l.018.016.02.014c.36.226.75.323 1.135.288.69 0 2.466-.462 3.34-.717 1.297-.348 4.993-.702 6.612-.876v.673c.03.018 1.52.805 3.882.805.956 0 1.088-.672 2.479.066.728.334 1.988 0 2.781-.27.663-.267 3.111 0 3.111 0 .53.069 1.007-.374 1.191-1.206.48-.084 2.724-.465 3.048-.486v1.56h15.523l-4.37-1.725 4.37-1.695zM170.94 10.244c.168 0 .306.138.306.307 0 .173-.138.31-.306.31a.307.307 0 0 1-.305-.31c0-.169.136-.307.305-.307zm7.805 6.702c-.362-.27-1.256-.709-1.613-.85.065-.134.112-.466.152-.54.855-.227 1.605 1.089 1.778 1.295 0 0-.183.174-.317.095zm-1.4-2.23c.037-.165.1-.522.079-.642 1.455-.17 1.854.804 1.953 1.373-.465-.402-1.62-.738-2.031-.73zm1.636-1.045c-.962-.403-1.179-.32-1.606-.267 0 0 .023-.49-.033-.671 1.293-.537 2.468.403 2.861.705-.132.133-.561.435-1.222.233zm.94-2.052c-.495.336-.877.284-1.462.257-.99-.066-.862.097-1.258.196 0 0-.02-.278-.252-.614 1.194-.736 2.197-.334 2.972.161zm-6.707-4.043l-.317-.098c-.12-.108-.248-.189-.37-.026 0 0-.03.137-.363.277-.102-.736.526-1.075 1.157-1.512.164-.111.394-.289.429-.49-.035.196.887.944-.536 1.85zm1.097 1.112c-.462-.47-.496-1.036.433-1.372.726-.282 1.199-.233 1.199-.233 0 .924-1.6 1.346-1.632 1.605zm1.282 1.003c-.1-.336-.378-.292-.288-.58.529-.804 1.929-.817 2.3-.964.148.277-.05.831-.473.91-.429.069-.536-.012-1.008.354l-.531.28zm.605.56c1.092-.939 2.269-.448 2.67-.359 0 0-.088.46-.75.49-.428.03-1.017.282-1.478.45 0 0-.21-.344-.442-.58zm.357 7.103c.13-.1.28-.399.35-.571.497 0 1.094 1.27 1.28 1.69-.763 0-1.5-.974-1.63-1.12zM157.46 18.36c-.209.32-.562.463-.913.526-.4 0-.688-.16-.945-.48-.08-.206-.129-.479-.031-.703a.81.81 0 0 1 .751-.48c.178.017.384.081.433.272a.4.4 0 0 1 0 .416c-.112.24-.402.29-.639.321l.045.08a.67.67 0 0 0 .688-.13.706.706 0 0 0 .225-.67c-.125-.368-.45-.703-.864-.736-2.097.065-.998 2.539-1.631 3.74-.268.512-.592 1.198-1.52.998 1.424-.605 1.177-2.883 1.177-3.671 0-1.081.645-1.515 1.254-1.69.671-.192 1.314.065 1.747.526.333.45.51 1.153.223 1.68zm-1.12-5.137c-.124-.158-.378-.316-.334-.567 1.508.707 3.505.519 5.028-.018.836-.205 1.888-.047 2.285.774.033.22.049.407-.016.614-.136.03-.136-.126-.165-.207-.61-.786-1.679-.502-2.517-.33-.319.19-.76.111-1.097.253-1.063.33-2.378.189-3.183-.519zm6.597 1.15c-.549.597-1.555.267-2.18.03-.255-.126-.56-.172-.788-.347.013-.237.272-.204.424-.267a4.318 4.318 0 0 1 1.278-.284c.399-.016.78.016 1.085.237a.664.664 0 0 1 .181.63zm-3.596-.221c1.266.204 2.392.976 3.797.614.41-.175.688-.52.885-.929.107-.6-.003-1.213-.443-1.56-1.862-1.576-3.904.551-5.9-.186-.764-.376-.525-.783-.548-1.16.125.325.273.377.414.432 2.13.71 4.295-1.353 6.262.205l.253.217c.442.553.741.93.567 2.004-.213.82-.57 1.39-1.675 1.702-1.997.3-3.563-1.646-5.798.014l-.52-.578c.669-.519 1.748-.996 2.706-.775zm-4.956-.113c.728.235 2.535 2.197 2.535 2.197a1.795 1.795 0 0 0-1.469-.219c-.887.255-1.358.885-1.358 1.826 0 .09.004.197.008.321.027.95.078 2.72-1.094 3.217l-.027.011c.101-.57.156-1.163.156-1.774v-1.053c0-1.532-.317-2.887-.935-4.056.13-.402.99-.806 2.184-.47zm-1.887-1.776c.364.434.54 1.232.036 1.722a1.018 1.018 0 0 0-.418.371 7.493 7.493 0 0 0-2.23-2.445c.26.018.519-.084.722-.294l.009-.01.005-.008c.24-.347.297-.742.163-1.148a1.254 1.254 0 0 0-.242-.402l1.955 2.214zm-3.377-2.273c.65-.41 1.313-.07 1.534.512.114.355.065.702-.149 1.016-.228.237-.525.303-.789.217-.366-.147-.132-.115.065-.181.532-.201.69-1.198-.103-1.198l-.076-.007c-.15.02-.337.095-.344.23 0 0-.03.138.08.065.067-.105.333-.221.516-.063.18.194.106.677-.411.729-.687.055-.842-.932-.323-1.32zm-13.044 0c.52.388.366 1.375-.322 1.32-.518-.052-.593-.535-.408-.73.181-.157.45-.04.514.064.11.073.082-.065.082-.065-.011-.135-.196-.21-.346-.23l-.074.007c-.797 0-.636.997-.107 1.198.2.066.43.034.067.181a.751.751 0 0 1-.788-.217 1.106 1.106 0 0 1-.15-1.016c.22-.582.885-.921 1.532-.512zm-3.375 2.273l1.955-2.214c-.103.113-.186.25-.244.402-.132.406-.074.801.163 1.148l.007.009.007.009c.203.21.462.312.723.294a7.476 7.476 0 0 0-2.227 2.445 1.018 1.018 0 0 0-.422-.371c-.504-.49-.324-1.288.038-1.722zm-1.887 1.776c1.193-.336 2.055.068 2.185.47-.622 1.169-.936 2.524-.936 4.056v1.053c0 .61.055 1.203.154 1.774l-.023-.01c-1.177-.498-1.123-2.268-1.098-3.218.004-.124.008-.231.008-.321 0-.94-.471-1.571-1.358-1.826a1.795 1.795 0 0 0-1.467.219s1.809-1.962 2.535-2.197zm-1.662-2.088c-.027.4-.176.7-.448.91-.47.366-1.285.449-2.491.257-.476-.076-.916-.198-1.34-.315-1.19-.326-2.128-.587-3.044.352-.022-.138-.047-.494.062-.616.887-1.06 1.74-.741 2.89-.37.412.132.842.268 1.3.356 1.166.215 1.957.122 2.413-.287.263-.243.406-.58.433-1.03.149.202.25.376.225.743zm-3.289 1.894c-.048.22-.33.267-.516.362-.856.428-1.883 1.072-2.91.551-.264-.141-.233-.441-.31-.676.032-.333.28-.505.56-.63 1.105-.315 2.148.188 3.176.393zm1.952.788c-1.052-.138-1.575.082-2.366.46-.462.222-.987.5-1.691.698l-.004.003-.01.002c-.904.235-1.873-.163-2.463-1.012-.593-.853-.634-1.912-.11-2.695l.02-.03.02-.028c1.24-1.477 2.612-1.037 3.82-.651.387.125.787.255 1.196.334 1.214.224 1.608.007 1.722-.096.214-.26.647-.596.549-1.267 0 0 .22.224.257.497.067 1.006-.295 1.945-2.643 1.508-1.751-.328-3.113-1.443-4.404.099-.815 1.214.454 3.075 1.878 2.706 1.832-.52 2.386-1.437 4.327-1.178.683.124 1.23.458 1.23.458l-.48.502c-.002-.001-.319-.213-.848-.31zm.149 2.046c.433-.461 1.074-.718 1.745-.526.61.175 1.255.609 1.255 1.69 0 .788-.25 3.066 1.174 3.671-.924.2-1.248-.486-1.516-.998-.634-1.201.462-3.675-1.635-3.74-.415.033-.737.368-.862.736a.71.71 0 0 0 .225.67.67.67 0 0 0 .688.13l.045-.08c-.24-.032-.527-.08-.64-.321a.393.393 0 0 1 0-.416c.051-.19.256-.255.435-.272.317-.014.621.194.75.48.094.224.047.497-.033.704-.255.32-.545.479-.941.479-.355-.063-.706-.207-.913-.526-.288-.528-.114-1.232.223-1.68zm-8.273 2.17c-.136-.51-.018-1.493.078-1.879 1.95 1.072 5.234 1.862 6.962 1.604l.366-.053c.021.05.05.103.076.155l.012.021.013.022c.28.429.73.702 1.34.813l.056.01h.06c.413 0 .77-.12 1.083-.362.009.442.038.889.168 1.297a13.049 13.049 0 0 0-1.57-.15l-.004.03c.544.04 1.085.121 1.614.227.029.083.065.164.103.24l.027.051c.07.138.167.316.288.496-.062.028-.123.057-.186.091-1.1-.305-2.528-.626-3.933-.67l-.002.03c1.322.098 2.647.445 3.705.782a2.202 2.202 0 0 0-.589.589c-1.135-.334-2.736-.73-4.315-.777v.028c1.537.115 3.086.566 4.201.943a2.34 2.34 0 0 0-.23.646c-.969-.273-3.243-.95-5.448-.946v.029c2.205.095 4.452.876 5.405 1.194a3.502 3.502 0 0 0-.011.558c-1.976-.531-4.934-1.075-7.026-.986.625-1.83.016-2.4-.452-2.876l-1.194-.2c1.44.653 1.342 2.513.694 3.166l-.007.01c-.359.065-.67.159-.915.29l-.105.057v.772c-.717.058-2.22.183-3.243.042-1.39-.151-.844-.568-1.637-.92-.844-.353-.547.654-1.44.704-.021.002-.04.002-.06.006-.218-.054-.43-.105-.638-.151-.391-.329-.194-1.08-.047-1.262-1.045-.052-.797 1.204-.996.854-.397-.352-.382-.906-.082-1.156-1.093.302-.697 1.207-.945 1.054-.646-.3-.462-.903-.214-1.207-.445 0-.79.555-.892 1.058-.895-.856.05-1.758.744-1.66 0 0 1.12.274 2.312-.179 2.434-.703 3.698.23 4.54.223 1.144.05 1.044.058 1.144-.397.098-.702.264-.581.264-1.082l.48.278c-.05-.452-.05-1.357-.05-1.657l.496.2zm-11.06 2.295c.013.011.027.03.04.04 0 0-.024-.014-.04-.04-.424-.353-.647-1.54.04-2.262.71-.745.775-.914.775-.914.226.44.485 1.862-.647 2.878-.206.153-.2.248-.168.298zm-.703-3.513a40.118 40.118 0 0 0 1.002-1.285v.102c.032.133.516.743-.486 1.858-.505.564-.516.882-.646 1.084-.127.203-.244.232-.322-.237-.129-.777.065-.913.452-1.522zm-1.193.777c-.42-.508.259-1.725.675-2.265.422-.543.743-.677 1.101-1.354.256 1.32-.422 1.828-.679 2.2-.432.619-.55.911-1.097 1.42zm3.276 1.162c.463.133.595.736.394 1.205-.33.134-.793.134-.99-.067.264-.402.596-.804.596-1.138zm2.278-.889c-.817 0-1.505.352-1.505-.226s.688-1.047 1.505-1.047c.814 0 1.557.469 1.557 1.047s-.743.226-1.557.226zm1.89.955l.2.67c-.265-.135-.729 0-.729 0-.132-.336-.065-.603-.065-.603l.594-.067zm-1.344.862s-.441.076-.64.01l.065-.739h.467l.108.73zm-1.75-.664l.711-.065c.067.201-.132.805-.132.805l-.58.13c.084-.204 0-.87 0-.87zm5.406-1.58c.462.285 1.08.648 1.452.937.372.291.1.921.116 1.007.017.086-.101.155-.184.034-.084-.12-.59-.443-1.112-.698-1.188-.698-1.184-1.736-1.121-2.099-.022.002-.034.016-.042.05 0 0 .118-.409.051-.102-.004.018-.007.034-.009.052.121-.003.474.584.85.819zm-.634-3.041c.019.091 1.29.858 2.119 1.77.693.763.583 1 .529 1.411 0 0-.44-.215-1.06-.535-.9-.5-1.41-1.271-1.62-1.842 0 0-.07-.519.032-.804zm1.215 5.565c.167.085-.047.04-.235.12-.473.205-1.045-.256-1.38-.289-.375-.114-.81-.768-.677-1.757.272-.173.388.971 2.292 1.926zm1.206-4.524c-.313-.413-1.1-.987-1.448-1.277-.346-.287-.657-.377-.674-1.76.098.288.592.667 1.612 1.401 1.02.736 1.25 1.403 1.316 2.39-.51 0-.494-.341-.806-.754zm.647-1.612c-.518-.395-1.121-.796-1.27-.95-.545-.57-1.36-.553-1.343-1.488.297.19.751.395 1.394.617.64.223 1.029.713 1.219 1.82zm-2.112-3.826c1.454.393 1.563.996 1.483 1.596 0 0-.966-.458-1.765-.695 0 0 .313-.476.282-.901zm-3.067 2.81a.35.35 0 0 1 .35-.354c.19 0 .347.158.347.354a.351.351 0 0 1-.347.351.35.35 0 0 1-.35-.351zm-3.493-2.61c-.029-.283.087-.43.261-.525a5.514 5.514 0 0 1 1.775-.253 5.5 5.5 0 0 1 1.77.253c.172.095.29.242.265.524 1.389-1.517 2.167-1.612 2.144-.307-.022 1.307-.726.64-.871.158 0 0 .038 2.528.023 2.953-.012.43-.141 1.352-1.363 1.426.528.066.894.235 1.025.402.067.135.101.402-.1.436a13.392 13.392 0 0 0-.96-.066c.2.133.497.181.661.226.2.085.299.176.299.176s0 .336-.13.469c-.133 0-.728-.302-1.027-.302 0 0 .447.2.746.628.148.202.22.464-.112.464 0 0-.26-.087-.424-.253-.565-.47-1.481-.378-1.778-.544-.167-.101.076-.553.342-.553.793 0 .848-.762.857-1.067 0 0-.198-1.052.597-.977.795.08.822-.633.848-1.44 0 0-.142.042-1.034.058-.89.014-1.061-.512-1.042-1.036l-.134 3.754c.127.104-.24.182-.602.18-.364.002-.732-.076-.603-.18l-.138-3.754c.018.524-.15 1.05-1.043 1.036-.89-.016-1.034-.057-1.034-.057.029.806.054 1.518.851 1.44.793-.076.598.976.598.976.01.305.061 1.067.854 1.067.268 0 .51.452.343.553-.297.166-1.214.075-1.777.544-.163.166-.425.253-.425.253-.332 0-.261-.262-.11-.464.298-.429.745-.628.745-.628-.297 0-.896.302-1.026.302-.133-.133-.133-.469-.133-.469s.102-.091.3-.176c.162-.045.463-.093.658-.226-.132 0-.66.032-.958.066-.197-.034-.166-.301-.1-.436.131-.167.497-.336 1.027-.402-1.222-.074-1.349-.996-1.363-1.426-.018-.425.024-2.953.024-2.953-.147.481-.848 1.15-.873-.158-.024-1.305.755-1.21 2.147.307zm.583 2.61a.35.35 0 0 1-.347.351.349.349 0 0 1-.348-.351.35.35 0 0 1 .348-.354.35.35 0 0 1 .347.354zm-3.65-1.543c.29-.202.387-.779.387-.508.129.237.453.643.42.846-.032.203-.807 1.456-1.356 1.048-.065-.371.257-1.183.549-1.386zm-1.097 4.16c-.033-.946 1.13-2.197 2.261-3.01.29-.21-.034 1.082-.742 1.759-.714.677-.938 1.185-1.52 1.251zm-6.99 7.293c0-.253.227-.374.583-.444.538-.116 1.313-.287 1.697-.531l.125-.083c.35-.224.538-.343.724-.343.406 0 2.475-.109 2.564-.114.777-.044 1.764-.383 2.066-1.056l.04.068v1.007c.197-.538.596-.74.862-.806 0 .603.197 1.072.197 1.34.198-.403.53-.737.862-.737-.05.349-.063.842-.067 1.324-2.72-.4-4.427-.255-6.01.129a.573.573 0 0 0-.195-.23c-.447.302-.549 1.106-.398 1.257 0 0-.198.052-.386.052-.695-.22-.304-.874-.172-1.004-.35.043-.609.305-.652.828.002.111-.015.167-.049.19h-.181c-.025-.003-.049-.01-.08-.014-.695-.22-.306-.874-.173-1.004-.348.043-.609.305-.652.828 0 .117-.04.172-.122.19h-.197c-.03-.003-.069-.007-.109-.014-.398-.203-.327-.582-.277-.833zm4.46 3.504h-9.53l2.76-1.088-3.359-1.357h10.13v2.445zm3.55.528l-3.353-.517c.958-.233 1.981-.393 3.352-.372v.89zm13.33.22c-1.806.094-3.707-.01-6.159-.613-5.825-1.476-8.34-1.34-10.498-.804v-2.864c2.158-.537 4.673-.671 10.498.804 2.195.54 4.015.598 5.637.412l-.016 2.27 2.77.286s-.726.469-2.232.508zm3.645-.622l-3.729-.363c.811-.325 2.267-.344 3.785-.197l-.056.56zm-3.957-.937v-2.78c1.595-.843 6.052-.138 8.898.642.2.741.549 2.149 1.917 3.312-2.352-.907-8.88-2.203-10.815-1.174zm9.495-2.201c-.264-2.18 1.688-2.38 2.673-2.252a8.442 8.442 0 0 0 1.746 3.587c-.26-.197-.649-.373-1.203-.387-.58 0-1.063.22-1.349.623-.199.28-.291.626-.262.97-.58-.437-1.438-1.604-1.605-2.541zm4.701 1.978c-.407-.212-1.477-.601-2.091-.108-.475.403-.294 1.202.337 1.135.162-.021.363-.104.374-.251 0 0 .031-.147-.087-.068-.072.113-.36.237-.56.066-.196-.21-.113-.732.445-.788.746-.06.912 1.009.35 1.433-.705.441-1.422.073-1.661-.559-.252-.772.202-1.745 1.408-1.745 1.268.032 1.601.943 1.485.885zm8.275 2.758c-5.74 0-10.392-3.332-10.392-9.146v-1.053c0-5.814 4.652-8.51 10.392-8.51 5.742 0 10.395 2.696 10.395 8.51v1.053c0 5.814-4.653 9.146-10.395 9.146zm11.172-1.898c-.237.632-.96 1-1.662.559-.565-.424-.397-1.492.35-1.433.56.056.642.578.441.788-.194.17-.483.047-.556-.066-.121-.08-.09.068-.09.068.012.147.213.23.378.251.627.067.808-.732.333-1.135-.612-.493-1.682-.104-2.091.108-.114.058.217-.853 1.485-.885 1.206 0 1.66.973 1.412 1.745zm.2-.296a1.455 1.455 0 0 0-.26-.971c-.29-.402-.767-.623-1.352-.623-.55.014-.94.19-1.203.387a8.446 8.446 0 0 0 1.748-3.587c.983-.129 2.935.072 2.67 2.252-.164.937-1.022 2.104-1.604 2.542zm.284.833c1.37-1.163 1.72-2.57 1.92-3.312 2.407-.661 7.383-1.266 9.828-.927l-.033.01c.049.3.101 1.155.148 1.505l-.843.254.302.96c-3.154-.266-9.365.756-11.322 1.51zm8.785-.768c1.52-.148 2.973-.128 3.788.197l-3.734.363-.054-.56zm1.639.61l2.184-.251.5.353c-.649.4-2.335.151-2.684-.102zm3.375-.603c-.15.199-.348.251-.596-.1-.096-.2-.695-.956-1.09-1.157.844-.201 1.615-.625 2.756.582-.297.1-.92.375-1.07.675zm7.05-3.533c.904-.069 1.955-.439 2.96-.986.461-.255 1.733-.135 2.154.082l-.056-.046.087.06c-.007-.005-.022-.008-.03-.014l.036.03c.143.114.458.367.711.583-1.045-.049-5.562.506-6.754.707 0 0 .594-.373.891-.416zm.41 2.195l-.002.007a13.406 13.406 0 0 0-.767-.495l-.013-.33c-.004-.13.004-.146.138-.166.19-.032.327-.059.492.054.259.174.279.627.152.93zm.797.769l-.015-.085c-.092-.133-.253-.278-.447-.432.01-.008.022-.015.033-.022.414-.302.507-.819.315-1.102-.237-.36-.714-.399-1.222-.32l-1.105.172c-.219-.138-.39-.256-.467-.337 3.444-.743 10.359-1.363 12.126-.551v2.576c-1.361-.626-5.551-.388-9.218.1zm3.353 1.474v-1.311c2.052-.158 3.95-.181 5.121.038-.29.377-1.001.845-5.12 1.273zm12.6-.507h-7.36c.661-.097.83-.23.886-.499v-1.946h7.07l-3.36 1.357 2.763 1.088z" fill="#FFF"></path>
                        </g>
                     </svg>
<svg height="30" viewBox="0 0 284 29" width="232" xmlns="http://www.w3.org/2000/svg">
               <g fill="none" fill-rule="evenodd">
                  <path d="M166.522 6.864a6.602 6.602 0 0 0 0 0M145.744 11.44c1.808.397 3.31 1.16 4.346 2.208 1.228 1.246 1.849 2.9 1.849 4.918v1.052c0 5.585-4.69 8.086-9.34 8.086-2.971 0-5.54-.946-7.232-2.659-1.381-1.397-2.11-3.273-2.11-5.427v-1.052c0-2.02.624-3.672 1.851-4.918 1.052-1.062 2.586-1.834 4.431-2.228l-.089-.403c-1.924.407-3.529 1.217-4.64 2.342-1.308 1.324-1.97 3.074-1.97 5.207v1.052c0 2.262.77 4.242 2.228 5.716 1.771 1.794 4.448 2.785 7.531 2.785 4.858 0 9.758-2.63 9.758-8.501v-1.052c0-2.131-.663-3.882-1.968-5.207-1.094-1.105-2.67-1.91-4.554-2.325l-.09.406zM147.016 8.635a.446.446 0 0 0 .443-.449.446.446 0 0 0-.443-.452.448.448 0 0 0-.446.452c0 .248.2.449.446.449M146.46 7.192a.45.45 0 0 0-.65.072c-.047.056-.076.22-.08.228l-.059.354a3.088 3.088 0 0 0-.494-.277l.293-.251c.002-.01.14-.131.165-.207a.51.51 0 0 0-.304-.664c-.261-.09-.544.049-.641.338-.026.073.007.256.005.265l.076.361a5.747 5.747 0 0 0-.626-.17l.26-.325c.004-.011.13-.175.14-.26.054-.336-.158-.618-.46-.665-.302-.045-.585.162-.636.497-.012.087.06.279.058.291l.154.379c-.21-.03-.429-.05-.652-.061a.837.837 0 0 0 .348-.671c0-.45-.37-.896-.759-.896-.387 0-.757.447-.757.896 0 .28.145.527.354.671a8.56 8.56 0 0 0-.667.063l.154-.38c-.002-.013.07-.205.06-.292-.05-.335-.333-.542-.636-.497-.302.047-.509.329-.461.664.012.086.137.25.139.26l.268.33a5.4 5.4 0 0 0-.634.17l.076-.365c-.002-.009.033-.192.006-.265-.096-.29-.38-.428-.641-.338-.261.092-.4.375-.303.664.022.076.161.198.163.207l.297.253a3.037 3.037 0 0 0-.496.282l-.058-.361c-.003-.007-.036-.172-.081-.228-.176-.212-.46-.235-.652-.072a.468.468 0 0 0-.042.663c.045.053.201.113.208.12l.344.12c-.04.041-.072.081-.105.122.908-.158 2.231-.335 3.486-.335 1.42 0 2.539.204 3.487.398a1.505 1.505 0 0 0-.146-.187l.335-.118c.005-.007.16-.067.206-.12a.465.465 0 0 0-.041-.663M138.174 8.635a.447.447 0 0 1-.445-.449c0-.251.2-.452.445-.452.247 0 .446.2.446.452 0 .248-.2.449-.446.449" fill="#FFF"></path>
                  <path d="M142.6 5.21c.348 0 .688.236.86.545V4.71l-.514.083.118-.473h-.929l.118.473-.515-.083v1.045c.174-.309.513-.546.862-.546M146.697 9.177c0-.137-.14-.264-.393-.38l-.03.567-.424-.291-.21.757.527-.007c-.103.239-1.065.851-1.485-.043-.14-.332.149-.492.26-.449.178.049.234.185.196.264.455-.077.544-.59-.154-.786-.293-.077-.32-.266-.356-.419v-.016c-.06.146-.082.336-.382.36-.721.071-.697.603-.261.76-.029-.087.034-.217.22-.236.115-.024.34.176.146.477-.16.27-1.199.742-1.59-.53.29.01.554.067.699.327v-.861l-.514.082.117-.474h-.929l.118.474-.512-.082v.861c.143-.256.402-.316.69-.326-.393 1.27-1.43.798-1.592.53-.192-.302.03-.502.148-.478.185.02.243.149.221.237.435-.158.46-.69-.262-.762-.3-.023-.32-.213-.384-.359l.002.016c-.038.153-.064.342-.355.419-.7.195-.609.709-.154.786-.042-.079.016-.215.192-.264.116-.043.402.117.264.45-.422.893-1.383.28-1.488.042l.529.007-.209-.757-.425.29-.058-.552c-.232.11-.362.237-.362.366l.365.747c.077.228.15.328.071.56.273.172.353.472.188.799 0 .41 1.556.745 3.475.745h.002c1.92 0 3.475-.334 3.475-.745-.165-.327-.087-.627.186-.8-.076-.23-.002-.331.073-.56l.365-.746zm-4.097 2.569c-1.557 0-2.821-.208-2.821-.463s1.264-.463 2.82-.463c1.558 0 2.82.208 2.82.463s-1.262.463-2.82.463zM115.755 8.412a.37.37 0 0 0 .365-.371.37.37 0 0 0-.365-.374.37.37 0 0 0-.368.374c0 .203.165.371.368.371M115.303 7.218c-.159-.134-.392-.114-.54.06-.035.045-.06.183-.066.19l-.045.293a2.582 2.582 0 0 0-.411-.23l.242-.208c.004-.008.118-.112.138-.17.081-.242-.035-.478-.252-.552-.215-.075-.45.041-.53.28-.022.061.007.212.003.22l.064.299a4.506 4.506 0 0 0-.524-.142l.221-.271c.002-.01.105-.14.116-.212.042-.278-.132-.513-.382-.551-.252-.038-.485.135-.527.413-.009.072.049.231.049.239l.127.312a8.466 8.466 0 0 0-.54-.05.688.688 0 0 0 .29-.555c0-.372-.308-.742-.628-.742s-.629.37-.629.742c0 .23.122.436.292.555a8.55 8.55 0 0 0-.55.052l.124-.314c0-.008.062-.167.05-.24-.04-.277-.272-.45-.524-.412-.252.038-.424.273-.382.551.01.072.114.203.116.212l.22.273a4.404 4.404 0 0 0-.523.143l.06-.301c0-.01.029-.16.007-.221-.081-.239-.315-.355-.53-.28-.216.074-.333.31-.252.551.02.06.134.163.136.17l.244.21a2.565 2.565 0 0 0-.409.234l-.047-.298c-.005-.007-.029-.145-.067-.19-.147-.174-.382-.194-.54-.06-.159.133-.18.37-.034.548.036.045.165.093.17.099l.284.099c-.03.035-.06.066-.086.104.753-.133 1.846-.282 2.888-.282 1.175 0 2.1.17 2.884.334a1.053 1.053 0 0 0-.121-.158l.279-.097c.005-.006.134-.054.17-.099.147-.178.125-.415-.035-.548M108.434 8.412a.37.37 0 0 1-.368-.371.37.37 0 0 1 .368-.374.37.37 0 0 1 .367.374.37.37 0 0 1-.367.371" fill="#FFF"></path>
                  <path d="M112.108 5.576c.288 0 .569.193.714.45v-.863l-.428.068.098-.391h-.768l.096.39-.427-.067v.863c.145-.257.426-.45.715-.45M115.5 8.861c0-.111-.116-.22-.324-.316l-.028.469-.349-.239-.174.627.437-.006c-.087.198-.882.704-1.232-.036-.114-.274.123-.407.218-.371.146.04.193.152.16.219.377-.065.452-.49-.126-.652-.243-.063-.264-.219-.295-.346v-.015c-.05.122-.067.28-.317.3-.598.06-.576.5-.216.628-.021-.073.026-.18.182-.195.097-.018.282.143.123.395-.134.222-.993.612-1.317-.438.24.009.457.055.578.27v-.714l-.424.068.096-.391h-.768l.096.391-.425-.068v.715c.12-.216.335-.26.57-.271-.322 1.05-1.18.66-1.316.438-.16-.252.025-.413.125-.395.152.016.203.122.18.195.36-.129.381-.569-.216-.628-.249-.02-.267-.178-.317-.3v.015c-.031.127-.053.283-.294.346-.58.162-.505.587-.128.652-.033-.067.014-.18.163-.22.092-.035.331.098.215.372-.35.74-1.144.234-1.231.036l.435.006-.17-.627-.352.239-.049-.456c-.192.093-.299.194-.299.303l.303.62c.061.186.123.27.06.461.226.145.733.643.733.643 0 .2.445.432.445.432.248-.863 1.302-.746 1.949-.746h.604c.85 0 1.469.17 1.442.746.458-.11.347-.371.547-.518.23-.175.117-.412.345-.557-.065-.19-.003-.275.058-.461l.303-.62zM116.615 23.224c.645.15 2.512.15 2.98.1.298-.15.745-.955.943-1.558.048-.15-.198-.503-.198-.503 0 .151.098.302.049.503-.101.201-.22.695-.865 1.449l-2.909.009zM108.41 23.666c.55 0 1.056.124 1.303.563.193.356.081.92-.375 1.185a1.637 1.637 0 0 1-.831.223h-1.313v-.063c.205 0 .322-.093.322-.244v-1.357c0-.151-.117-.246-.322-.246v-.061h1.217zm-.265 1.7c0 .161.005.178.168.178.554 0 .663-.246.724-.377.163-.352.154-.98-.145-1.248-.195-.17-.354-.16-.579-.16-.163 0-.168.014-.168.176v1.43zM111.08 25.69c-.003.148.113.261.365.302v.06l-1.358-.234v-.06c.255.044.37-.028.371-.175l.01-1.316c0-.147-.113-.259-.367-.303v-.06l1.36.236-.002.059c-.255-.043-.37.03-.37.176l-.01 1.316zM126.546 25.512c0 .138.114.251.317.285v.058l-1.25-.225v-.055c.202.037.318-.033.318-.174v-1.476c-.096-.015-.345-.094-.56.027-.188.102-.185.233-.206.301l-.086-.016v-.55l2.316.416v.549l-.085-.016c-.021-.074-.014-.205-.206-.374-.216-.197-.465-.206-.558-.226v1.476zM116.768 26.548c0 .517-.453.625-1.103.488-.683-.143-.956-.527-.956-.74v-1.15c0-.153-.12-.27-.328-.305v-.061l1.287.222v.061c-.208-.037-.327.04-.327.189v1.054c0 .215.06.463.364.583.27.104.907.205.907-.36v-1.054c0-.153-.109-.266-.317-.306v-.06l.791.136v.063c-.206-.036-.318.04-.318.192v1.048zM112.665 26.038c-.005.14.015.183.208.224.536.122.832.052 1.114-.296l.101.018-.186.531-2.157-.359.004-.057c.196.032.313-.038.317-.178l.052-1.282c.008-.14-.103-.25-.298-.282l.001-.057 2.13.356-.024.565-.078-.014c-.03-.1-.047-.47-.637-.582l-.324-.06c-.136-.024-.163-.003-.17.135l-.024.627c.435.054.504.022.638-.303l.08.012-.037.907-.08-.013c-.106-.366-.172-.422-.604-.511l-.026.619zM123.29 25.142c-.005.14.017.181.207.207.538.073.835-.024 1.116-.397l.103.005-.188.553-2.159-.167.004-.057c.197.014.315-.067.32-.209l.051-1.283c.007-.142-.103-.24-.3-.255l.003-.058 2.13.164-.026.565-.074-.003c-.033-.097-.047-.47-.64-.525l-.323-.032c-.136-.012-.165.01-.169.15l-.025.627c.434.015.503-.023.637-.36l.08.005-.036.91-.08-.005c-.105-.357-.172-.406-.605-.456l-.025.621z" fill="#FFF"></path>
                  <path d="M173.957 24.339c.056.034.114.072.18.11-.028-.067-.088-.103-.18-.11" fill="#231F20"></path>
                  <path d="M164.518 25.294l-1.56-1.373V25c0 .131.097.215.284.215v.054h-.707v-.054c.185 0 .283-.084.283-.215v-1.2l-.13-.116c-.051-.041-.086-.095-.18-.095v-.054h.744l1.23 1.099v-.828c0-.133-.098-.217-.283-.217v-.054h.705v.054c-.185 0-.283.084-.283.217v1.488h-.103zM161.924 25.25a1.783 1.783 0 0 1-.72.232 1.594 1.594 0 0 1-.721-.106.786.786 0 0 1-.505-.74c0-.315.182-.638.505-.827.233-.131.483-.208.72-.23.238-.02.486.013.721.108.319.126.503.42.503.736a.977.977 0 0 1-.503.828m-.503.106c.143-.067.239-.176.322-.365.054-.12.089-.312.089-.515s-.035-.388-.089-.501c-.083-.172-.18-.264-.322-.305a.63.63 0 0 0-.218-.024.663.663 0 0 0-.217.063c-.143.063-.24.173-.322.36-.055.12-.089.317-.089.515 0 .202.034.391.089.502.081.173.18.268.322.305a.547.547 0 0 0 .217.02.681.681 0 0 0 .218-.055" fill="#FFF"></path>
                  <path d="M159.703 25.37c0 .136.11.205.292.172v.056l-1.145.206v-.054c.183-.034.29-.138.288-.274l-.005-1.28-.895 1.721-.081.015-.882-1.404.007 1.285c.002.137.103.205.286.173v.052l-.706.13v-.055c.187-.032.282-.136.282-.273l-.007-1.226c0-.188-.094-.21-.32-.17v-.056l.896-.164.683 1.1.704-1.35.882-.162v.053c-.181.034-.288.139-.288.275l.009 1.23zM182.383 24.853c0 .141.11.231.346.231v.056h-1.28v-.056c.237 0 .35-.09.35-.231V23.58c0-.14-.113-.232-.35-.232v-.056h1.28v.056c-.236 0-.346.092-.346.232v1.273zM177.469 24.637l-.092.01.038.565c.009.138.125.211.318.188l.006.057-1.208.153-.004-.056c.196-.025.301-.129.294-.267l-.084-1.251c-.009-.14-.13-.216-.322-.19l-.005-.056 1.17-.15c.29-.035.662-.042.872.078.163.095.265.3.127.486-.114.153-.279.237-.502.307l.757.654c.113.095.149.077.194.07l.004.057-.737.094-.826-.749zm-.1-.075c.185-.026.545-.04.643-.29.05-.14.01-.36-.049-.423-.08-.088-.213-.158-.494-.102-.074.014-.148.055-.141.129l.041.686zM180.804 25.033a1.69 1.69 0 0 1-.688.235 1.489 1.489 0 0 1-.69-.11.788.788 0 0 1-.482-.737c0-.32.176-.643.482-.83.223-.132.462-.21.69-.23a1.49 1.49 0 0 1 .688.109c.306.125.483.42.483.737a.98.98 0 0 1-.483.826m-.482.106c.136-.066.23-.178.31-.364a1.39 1.39 0 0 0 .085-.516c0-.202-.033-.39-.085-.5-.08-.175-.174-.266-.31-.307a.55.55 0 0 0-.413.04c-.135.064-.231.173-.31.364-.05.116-.084.312-.084.515 0 .199.034.388.085.499.078.174.174.266.31.305a.527.527 0 0 0 .206.022.694.694 0 0 0 .206-.058M184.355 25.021c0 .14.108.244.293.266v.059l-1.155-.14v-.057c.188.021.291-.056.291-.194v-1.476c-.083-.007-.317-.07-.518.064-.173.114-.17.245-.188.313l-.078-.01v-.548l2.142.258v.546l-.078-.01c-.018-.071-.014-.202-.19-.358-.2-.18-.432-.173-.52-.187v1.474zM169.61 16.104c.13.262.053.524-.218.698l-.015.03c.766.294 1.74.787 2.767 1.41 1.025.625 1.91 1.271 2.524 1.819a.1.1 0 0 0 .024-.025c.021-.323.217-.517.505-.524.043-.21.146-.252.306-.388l.619-.404c.06-.103.013-.266-.127-.472l-.282.416-.19-.418-.504.481.406.24c-.188.133-1.199.155-1.114-.725.044-.314.335-.305.402-.22.114.121.096.249.03.292.38.153.682-.197.24-.671-.19-.194-.125-.35-.081-.487l.01-.009c-.115.08-.217.217-.46.097-.579-.28-.805.135-.543.456.02-.077.125-.149.276-.077.1.036.18.292-.102.43-.25.132-1.253.01-.972-1.143.213.144.39.309.384.576l.389-.659-.43-.174.303-.307-.706-.43-.127.412-.353-.301-.39.657c.225-.13.45-.052.675.072-.875.788-1.453-.056-1.454-.334-.01-.323.251-.368.33-.293.133.095.119.226.06.278.404.087.662-.308.144-.7-.218-.158-.147-.314-.129-.456l-.005.015c-.098.104-.203.233-.462.156-.621-.176-.784.258-.474.528.007-.081.11-.157.27-.11.104.018.25.275-.004.461-.73.487-1.183-.429-1.154-.657l.4.252.183-.675-.454.023.206-.449c-.228-.021-.384.01-.442.111l-.061.74c-.047.207-.033.32-.2.458M161.399 21.611c.393-1.127.856-2.056 1.056-2.375a.253.253 0 0 0-.076-.347.246.246 0 0 0-.343.077c-.22.352-.695 1.302-1.104 2.478a.252.252 0 0 0 .152.32.244.244 0 0 0 .315-.153M162.94 18.485c.5-.912 1.583-1.786 2.002-1.982a.248.248 0 0 0 .123-.33.245.245 0 0 0-.33-.124c-.494.23-1.662 1.158-2.229 2.192a.258.258 0 0 0 .098.343c.118.066.27.021.337-.1M165.75 16.083c1.165-.138 2.052-.187 2.637-.15a.252.252 0 0 0 .033-.5c-.614-.043-1.532.009-2.727.15a.25.25 0 0 0-.218.28c.015.137.14.236.276.22M163.475 18.036l-.031.047c-.297.436-.994 1.463-1.22 2.063-.051.129.014.274.14.325a.251.251 0 0 0 .323-.146c.205-.544.904-1.57 1.166-1.959l.033-.046a.25.25 0 0 0-.067-.349.246.246 0 0 0-.344.065" fill="#FFF"></path>
                  <path d="M164.649 17.526l.147-.11c.438-.316.853-.615 1.995-.747a.246.246 0 0 0 .22-.274.247.247 0 0 0-.276-.223c-1.273.144-1.778.512-2.225.839l-.143.104a.252.252 0 0 0-.064.35c.082.113.234.14.346.06" fill="#FFF"></path>
                  <path d="M165.984 17.54c.51-.14 1.88-.262 2.403-.214a.25.25 0 0 0 .268-.23.246.246 0 0 0-.223-.269c-.587-.057-2.008.072-2.578.228a.251.251 0 0 0-.174.309.245.245 0 0 0 .304.176M164.981 17.496c-.373.268-1.133 1.19-1.307 1.542a.255.255 0 0 0 .112.34c.124.06.272.01.332-.115.128-.255.83-1.128 1.153-1.358a.255.255 0 0 0 .054-.351.245.245 0 0 0-.344-.058M163.204 19.917a3.47 3.47 0 0 1-.206.426c-.192.359-.451.845-.686 1.62a.248.248 0 0 0 .166.313c.13.043.27-.03.31-.165.22-.727.467-1.188.646-1.53a3.65 3.65 0 0 0 .236-.486.251.251 0 0 0-.145-.323.248.248 0 0 0-.32.145M162.695 22.938a.252.252 0 0 0-.145-.323.247.247 0 0 0-.318.147 3.284 3.284 0 0 1-.133.28l.596-.104zM167.708 16.537h1.986a.248.248 0 0 0 .247-.251.25.25 0 0 0-.247-.252h-1.986a.251.251 0 0 0 0 .503M149.622 12.519h-14.4V22.919c0 1.395.847 2.472 2.584 3.294l.009.004.005.003 4.634 1.945.063.027H142.673l.065-.027 4.634-1.945.009-.003.007-.004c1.736-.822 2.58-1.9 2.58-3.294V12.519h-.346zm-2.526 13.053l-4.501 1.89-4.5-1.89c-1.952-.924-2.176-1.955-2.176-2.653v-9.695h13.357v9.695c0 .698-.228 1.729-2.18 2.653z" fill="#FFF"></path>
                  <path d="M142.496 27.812h.21V13.088h-.21z" fill="#FFF"></path>
                  <path d="M135.78 19.808h13.703V19.6H135.78zM148.547 18.699v-4.827h-5.025v4.931h5.025v-.104zm-4.815 0v-4.727l-.108.104h4.816l-.101-.104v4.727l.101-.104h-4.816l.108.104z" fill="#FFF"></path>
                  <path d="M143.631 14.275a.285.285 0 0 0 .285-.287.285.285 0 1 0-.569 0c0 .16.127.287.284.287M143.631 18.981a.284.284 0 0 0 .285-.285.285.285 0 0 0-.285-.29.285.285 0 0 0-.284.29c0 .158.127.285.284.285M148.44 18.981a.284.284 0 0 0 .285-.285.284.284 0 0 0-.567 0c0 .158.125.285.283.285M148.44 14.268c.158 0 .285-.129.285-.287a.286.286 0 0 0-.284-.29.285.285 0 0 0-.283.29c0 .158.125.287.283.287M145.774 13.974l.23.233.23-.233-.23-.232zM145.774 18.7l.23.234.23-.233-.23-.234zM143.398 16.337l.23.234.23-.234-.23-.231zM148.213 16.337l.23.234.23-.234-.23-.231zM146.312 17.219c-.212-.002-.366-.065-.451.262-.063.181.004.316-.391.505l-.442.206c-.262.106-.465-.038-.056-.237.277-.135.469-.212.527-.438.049-.237-.149-.574.262-.65.335-.043.475-.205.115-.506-.066-.063-.176.029-.399.13l-.65.326c-.195.097-.42-.144.053-.357l.57-.262c.235-.139.201-.232-.009-.383l-.666-.574c-.256-.227-.1-.395.211-.155l.5.415c.15.117.51-.07.476-.27-.052-.217-.202-.72.16-.712.199 0 .76-.119.623.284l-.34 1.095c-.084.526.287.955.385.413l.087-.943c.027-.341.753-.424.751.106l-.097 1.391c-.024.29-.201-.025-.328-.253-.152-.34.022-.24.096-.149l.056-.932c0-.188-.236-.188-.236 0l-.061.934c-.007.17-.183.2-.308.426-.063.114.047.33.248.403.216.123.408.017.433.243.018.196.205.643.067.766-.114.117-.188-.08-.228-.298 0-.16-.118-.386-.254-.41-.2-.028-.523.09-.704-.376M138.395 14.671h2.48c.278 0 .287-.303 0-.303h-1.433c-.212 0-.195-.248 0-.248h1.449c.275 0 .632.187.414.575-.049.088-.049.125.065.176 0 0 .03.032.29.172.196.04.223.316.237.41.033.193-.22.183-.282.028-.013-.1-.05-.206-.19-.255l-.435-.136-.556.283c-.116.08-.23.164-.458.164h-.673c-.212 0-.216-.22 0-.22h.51c.062 0 .228-.098.366-.238h-1.327c-.335 0-.442.063-.824.172l-1.065.277c-.226.064-.302-.144-.061-.221l.49-.14c.292-.088.256-.232-.097-.411l-.495-.255c-.203-.092-.114-.334.114-.22l.63.308c.182.09.308-.032.243-.214-.103-.235-.034-.567.152-.567.188 0 .784-.104.569.253-.075.158-.395.603-.113.61M138.395 16.544h2.48c.278 0 .287-.303 0-.303h-1.433c-.212 0-.195-.246 0-.246h1.449c.275 0 .632.185.414.569-.049.091-.049.129.065.18 0 0 .03.032.29.172.196.04.223.314.237.407.033.196-.22.185-.282.03-.013-.102-.05-.204-.19-.258l-.435-.134-.556.283c-.116.08-.23.164-.458.164h-.673c-.212 0-.216-.22 0-.22h.51c.062 0 .228-.098.366-.238h-1.327c-.335 0-.442.063-.824.174l-1.065.275c-.226.064-.302-.144-.061-.22l.49-.14c.292-.09.256-.233-.097-.41l-.495-.256c-.203-.091-.114-.335.114-.219l.63.307c.182.092.308-.035.243-.213-.103-.235-.034-.57.152-.57.188 0 .784-.102.569.256-.075.156-.395.603-.113.61M138.395 18.415h2.48c.278 0 .287-.305 0-.305h-1.433c-.212 0-.195-.246 0-.246h1.449c.275 0 .632.186.414.572-.049.09-.049.128.065.178 0 0 .03.032.29.172.196.04.223.315.237.41.033.194-.22.181-.282.028-.013-.102-.05-.206-.19-.256l-.435-.135-.556.284c-.116.079-.23.163-.458.163h-.673c-.212 0-.216-.219 0-.219h.51c.062 0 .228-.099.366-.239h-1.327c-.335 0-.442.063-.824.173l-1.065.276c-.226.063-.302-.144-.061-.22l.49-.14c.292-.089.256-.232-.097-.412l-.495-.257c-.203-.09-.114-.332.114-.217l.63.307c.182.09.308-.034.243-.215-.103-.234-.034-.566.152-.566.188 0 .784-.106.569.253-.075.157-.395.604-.113.61M145.023 20.904h2.479c.28 0 .291-.305 0-.305h-1.43c-.214 0-.196-.248 0-.248h1.444c.28 0 .636.189.418.573-.05.092-.05.13.066.178 0 0 .027.034.29.174.193.04.218.312.237.408.032.195-.223.183-.287.028-.01-.1-.048-.203-.188-.255l-.433-.136-.56.284c-.113.079-.227.163-.455.163h-.674c-.212 0-.215-.22 0-.22h.51c.064 0 .227-.098.368-.24h-1.329c-.335 0-.44.067-.822.174l-1.066.277c-.227.065-.303-.142-.062-.22l.493-.141c.291-.09.253-.232-.098-.41l-.496-.256c-.203-.09-.113-.332.116-.22l.63.31c.177.091.304-.036.24-.214-.1-.235-.032-.569.153-.569.188 0 .785-.102.568.255-.074.158-.393.603-.112.61M145.023 22.845h2.479c.28 0 .291-.305 0-.305h-1.43c-.214 0-.196-.246 0-.246h1.444c.28 0 .636.187.418.573-.05.09-.05.127.066.18 0 0 .027.03.29.17.193.04.218.316.237.411.032.194-.223.181-.287.027-.01-.1-.048-.205-.188-.257l-.433-.134-.56.283c-.113.081-.227.164-.455.164h-.674c-.212 0-.215-.221 0-.221h.51c.064 0 .227-.097.368-.237h-1.329c-.335 0-.44.064-.822.172l-1.066.277c-.227.064-.303-.144-.062-.221l.493-.14c.291-.088.253-.232-.098-.411l-.496-.257c-.203-.09-.113-.33.116-.217l.63.308c.177.088.304-.035.24-.217-.1-.233-.032-.565.153-.565.188 0 .785-.104.568.253-.074.156-.393.601-.112.61M147.083 24.288h-1.014c-.194 0-.21.246 0 .246h.998c.291 0 .282.305 0 .305h-2.043c-.284-.009.038-.454.11-.612.216-.355-.38-.255-.566-.255-.187 0-.255.336-.152.571.063.178-.064.305-.241.212l-.634-.307c-.228-.115-.317.127-.116.219l.498.257c.353.18.373.212.1.48l-.496.55c-.267.253-.212.368.016.304l1.112-.839c.16-.149.717-.152.717-.142l-.109.272-.355.27c-.07.05-.168.151-.12.223a.16.16 0 0 0 .222.03l.422-.319c.027-.021.367-.35.497-.504h.504v.005l-.062.113-.293.214a.157.157 0 0 0-.03.222c.052.07.15.027.218-.025l.417-.317a.152.152 0 0 0 .063-.126l.058-.086h.232c.612 0 .923-.96.047-.96M252.864 2.583c.454-.001.66-.719.783-1.024h1.362c-.042.535-.042 1.446-.042 2.403 0 .763.165 4.587.206 5.504h-1.361l-.002-.014c-1.079-3.516-3.884-7.693-9.819-7.693-6.272 0-10.685 5.353-10.685 12.504 0 5.66 2.97 13.038 10.77 13.038 2.474 0 4.949-.727 6.519-2.487.123-1.682.041-6.007.041-6.849l-3.922-.152-.04-1.185c1.033 0 2.188.04 3.55.04 3.465 0 5.495-.078 7.722-.155v1.222c-2.104.117-2.269.307-2.269 1.034v5.74c-4.041 2.485-8.302 4.167-13.212 4.167-7.18 0-14.689-4.854-14.689-14.03 0-8.03 5.983-14.11 15.016-14.11 5.612 0 9.45 2.044 10.072 2.047zM29.564 26.869l2.7-.075c.075-2.027.117-2.523.117-7.419 0-12.923 0-14.337-.118-16.901l-2.7-.075V1.176c1.005 0 2.584.075 5.438.075 2.854 0 4.436-.075 5.4-.075v1.223l-2.932.075c-.078 2.41-.078 8.45-.078 11.244H51.63c0-2.793 0-8.835-.118-11.244l-2.97-.075V1.136c1.004.078 2.584.115 5.438.115 2.892 0 4.438-.075 5.438-.075v1.223l-2.736.075c-.042 2.066-.042 2.564-.042 7.418 0 12.925 0 14.38.08 16.902l2.698.075v1.226c-1 0-2.582-.075-5.438-.075-2.854 0-4.434.075-5.437.075V26.87l2.97-.075c.117-2.41.117-9.063.117-11.93H37.39c0 8.565 0 9.52.078 11.93l2.932.075v1.264c-.964-.077-2.546-.113-5.4-.113-2.854 0-4.433.075-5.437.075V26.87zM16.549 2.232c-.038 2.063-.076 2.677-.076 7.682 0 12.927 0 14.342.076 16.866l2.932.077v1.22c-1.004 0-2.901-.075-5.91-.075-2.97 0-4.511.076-5.512.076v-1.221l2.927-.077c.078-2.027.118-2.524.118-7.419 0-13 0-14.414-.118-17.129L7.294 2.23c-3.2 0-3.934.307-4.126.65-.232.46-.424 3.979-.462 4.744H.894L.546 1.16c4.318.04 8.445.076 13.033.076h.377c4.592 0 8.715-.036 13.035-.076l-.347 6.464H24.83c-.038-.765-.232-4.284-.463-4.744-.192-.343-.926-.648-4.125-.648h-3.694zM84.468 21.059l-1.852 5.887h-9.108c-3.47 0-3.701-.23-3.815-1.72-.078-1.223-.078-8.871-.078-10.82h.764c1.197 0 5.552 0 6.015.342.496.388.504 1.038.716 3.646h1.816c-.047-2.044-.14-3.612-.14-5.326 0-1.262.053-2.496.09-3.683h-1.705c-.14 2.456-.44 3.442-.967 3.72-.425.228-3.087.306-5.825.306h-.764V2.245h7.533c1.082 0 3.74 0 4.744.458.927.5 1.005 1.38 1.195 4.208h1.852V1.177c-1.698 0-13.202.112-15.056.112-4.239 0-6.36-.076-8.557-.112v1.221l3.161.117c.114 2.52.114 3.937.114 16.862 0 4.894-.038 5.39-.114 7.416l-3.161.075v1.225c1.81 0 9.446-.076 11.838-.076h12.461l.54-6.958h-1.697zM281.866 21.059l-1.852 5.887h-9.106c-3.473 0-3.703-.23-3.817-1.72-.078-1.223-.078-8.871-.078-10.82h.764c1.195 0 5.553 0 6.015.342.496.388.503 1.038.715 3.646h1.815c-.046-2.044-.142-3.612-.142-5.326 0-1.262.057-2.496.095-3.683h-1.708c-.138 2.456-.44 3.442-.967 3.72-.425.228-3.085.306-5.823.306h-.764V2.245h7.534c1.08 0 3.737 0 4.742.458.926.5 1.004 1.38 1.194 4.208h1.854V1.177c-1.697 0-13.204.112-15.056.112-4.24 0-6.361-.076-8.56-.112v1.221l3.162.117c.114 2.52.114 3.937.114 16.862 0 4.894-.036 5.39-.114 7.416l-3.162.075v1.225c1.813 0 9.449-.076 11.839-.076h12.463l.54-6.958h-1.697zM216.783 17.466c0 .113-.206.23-.492.266h-8.277c-.578 0-.743-.111-.743-.228 0-.113.084-.268.165-.535l4.507-10.955c.125-.228.165-.42.248-.42.082 0 .206.192.248.344l.024.056 4.155 10.975c.125.305.165.382.165.497m9.986 8.494a36.882 36.882 0 0 1-1.693-3.4L215.463.534h-2.443l-5.734 13.882c-.784 1.91-4.58 10.478-5.076 11.357-.6 1.06-1.043.918-3.313 1.108v1.223c.825-.04 3.149-.117 4.594-.117 1.278 0 2.558.077 3.712.117V26.88c-3.093-.038-3.383-.19-3.383-.614 0-.153.167-.61.371-1.145l2.264-5.629c.248-.574.37-.687.907-.687h9.367c.744 0 .827 0 1.073.57l2.488 6.09c.165.383.29.724.29.954 0 .193-.29.384-3.714.461v1.223c3.216-.076 4.623-.117 6.148-.117 2.229 0 4.706.041 6.524.117v-1.3c-1.601 0-2.398-.19-2.769-.844M139.12 20.452c-.259 0-.476.023-.561.305-.098.286-.364.625-.6.722a.687.687 0 0 1-.025-.456c.082-.366-.168-.472-.37-.472-.166 0-.242.005-.345.16-.103.154-.28.486.027.619.364.169.017.592-.105.79-.371.528.3 2.036 1.145 2.46l3.386 1.544v-5.672h-2.552zm.058 4.273c-.387-.205-1.151-.946-1.284-2.338 0-.035 0-.066.004-.1l3.47 3.44-2.19-1.002zm2.264.648l-3.444-3.391a.44.44 0 0 1 .306-.196.49.49 0 0 0 .114-.072l3.024 3v.66zm0-1.086l-2.823-2.783c.096-.126.197-.257.333-.33l2.49 2.46v.653zm0-1.08l-2.164-2.12c.172-.026.353-.037.568-.064l1.596 1.585v.6zm0-1.024l-1.233-1.212a6.05 6.05 0 0 0 1.233-.395v1.607z" fill="#FFF"></path>
                  <path d="M194.867 24.397h-9.14v-1.201c-.69-.173-2.296-.426-3.9-.474-.133-.169-.93-.805-1.257-1.074-.529-.301-2.088-.5-2.814-.1-.864.47-1.84.813-2.7.88.065-.202.116-1.213.016-1.415-.231-.27-.463-.604-.498-.907l.334-.268c1.555 1.577 1.687.984 2.13.857-.495-.3-.532-.524-.532-.524.745.15 1.677-.03 2.043-.277-.846-.253-.625-.648-.625-.648.895.1 1.677-.388 1.827-.618a1.846 1.846 0 0 1-.731-.818c1.492-.654 1.151-.82 1.555-1.034-.594-.049-.85-.618-.85-.618a5.358 5.358 0 0 0 1.491-.896 1.437 1.437 0 0 1-1.235-.91c1.389-.402 1.43-1.034 1.737-1.544-1.09.201-1.416-.356-1.416-.356 1.34-.702 1.37-1.294 1.253-1.727-1.043.503-1.58.027-1.907-.185.445-.452.688-1.255.699-1.653-.746.352-1.568.14-1.965-.047.346-.953.075-1.55-.092-1.987-.447.551-1.038.608-1.494.684.198-1.257-.105-1.56-.429-1.844-.344.654-.78.664-1.476.695-.447-1.862-.99-1.596-1.403-1.636 0 .503-.422.778-.806 1.042-1.29.603-1.314 1.41-1.436 2.122l-4.566-1.467c-.609-.22-1.007.032-.189.404l4.252 1.881c-.686.09-1 .866-1.568 1.018-.886.323-1.813.453-2.608.918-.639.307-.168 1.165-.595 1.6-.03.276-.105.631.137.816.2.138.504.138.732.155.014.123-.045.185-.089.262-.063.077-.123.215-.032.292.394.481 1.008.866 1.722.634.335-.14.396-.51.702-.725.824-.48 1.584.248 2.224.585-.013.356-.411.48-.411.833 0 .023.005.036.005.054.319-.043.654-.115.918-.233.522-.241 1.427-1.04 1.865-1.485.393-.442.46-1.052.185-1.53a1.04 1.04 0 0 0-.623-.416c-.094.122.043.28.074.416.016.634-.378 1.252-.869 1.575-.898.371-1.48-.433-2.195-.738-.747-.049-1.555-.034-1.875.693-.196.091-.153.26-.38.278-.167.014-.32 0-.428-.172-.076-.293.306-.183.427-.34.2-.044.26-.262.43-.353.074-.325-.278-.34-.444-.48-.337-.093-.76-.046-1.021.14-.122.031-.23-.046-.274-.125-.063-.155.076-.246.103-.384.245-.063.55.046.72-.187a.586.586 0 0 0 0-.553.3.3 0 0 0-.321-.032c-.062.107-.107.138-.214.138-.092-.077 0-.17 0-.278.26-.246.641-.17.945-.324.594-.278 1.356-.185 1.905-.601.17-.03.121.187.2.262-.048.354-.428.433-.672.571.275.092.55-.077.869-.016.746.215 1.555.032 2.18-.323-.046-.216-.304-.325-.413-.51-.502-.277-1.14-.293-1.72-.309.351-.585 1.188-.384 1.812-.524l.61.154c.033-.293 0-.664.11-.957.638.061.56.772.713 1.22.29.03.642-.017.914.17 1.434 1.002 2.151 2.822 1.952 4.691-.228.926-.351 1.898-.943 2.64-.077.277.534.401.18.602l-.016.024.094.21.002-.002.234-.343.232.341c.047.07.085.138.117.203l.018-.027c.201.402.201.637.663.94-.15.06-.465.313-1.021-.07-.304-.164-.435-.105-.435-.105l-.662.341-4.209-2.522c-.13.068-.282.134-.461.194-.417.199-.614.016-1.394-.011.003.028.01.057.01.086a.457.457 0 0 1-.159.307.432.432 0 0 1-.223.099l-.012.01-.093-.007c-.492-.046-1.845.076-2.33.209a.44.44 0 0 1-.503-.216c.032.08.045.169.03.259a.428.428 0 0 1-.096.211v.02l-.083.06c-.121.086-.308.285-.498.502.067-.01.13-.018.19-.021 2.285-.201 4.268-.604 4.815-1.056 1.69.251 3.625 1.558 3.922 1.86 0 .655.15 1.407.398 1.66.594 1.105-.1 2.162-.695 2.464l-.496.172-.149-.122.716-1.106c0-.454-.071-1.309-.12-1.46l-.052 1.26c-.147.65-.643 1.053-.792 1.256-.2-.151-.945-.553-1.144-.706.049-.2.101-.853.101-1.204l-.112-.017c-.125.178-.259.733-.436.871-.21.237-.513.253-.696.508.047.169.317.103.455.22 1.014.493 1.47.857 2.423 1.491.898.596 1.454.831 2.102 1.357.226.135.136.458.165.711-.36.595-1.177.39-1.815.426-.813 0-1.54-.12-2.298.118-.59.288-1.495.629-2.085.085-.287-.221-.634-.374-.951-.56.027-.271.36-.288.543-.424.346-.22.728-.119 1.043.102.12.085.24-.034.346-.102.018-.119.018-.338.185-.338.617.338 1.388.44 2.129.304.123-.068.275-.05.41-.119-.394-.305-.97-.422-1.438-.696-1.478-.356-2.765-.753-4.308-.92-.288-.206-.458-1.014-.5-1.333.02-.58.004-.896.167-1.433.052-.251.35-.354.6-.553l-.2-.1c-.297 0-.992.502-1.291.902 0 0-.07.413-.067.887-.989-.118-2.742-.102-4.154.002.02-.099.176-1.05.326-1.388a.253.253 0 0 0-.121-.332.25.25 0 0 0-.332.124c-.262.589-.311.878-.41 1.63-.003.018-.003.036-.003.054l-.325.032c.03-.136.074-.292.106-.425l.058-.22a.255.255 0 0 0-.183-.304.249.249 0 0 0-.3.181l-.056.215c-.047.189-.109.419-.143.604v.01c-1.63.19-3.173.462-4.176.733.011-.165.011-.32-.002-.463 1.096-.113 3.162-.6 3.578-.785-.364.094-2.575.474-3.607.542a2.387 2.387 0 0 0-.157-.57c1.235-.117 3.527-.598 3.987-.783-.413.093-2.971.486-4.101.546a2.257 2.257 0 0 0-.355-.48c-.103-.1-.21-.188-.32-.266 1.419-.093 3.708-.425 4.193-.569-.458.07-3.276.341-4.55.363l-.07-.032c.124-.18.218-.358.29-.496l.024-.05c.011-.022.02-.043.03-.067.982-.06 2.016-.18 2.304-.269-.237.029-1.257.074-2.225.085.165-.433.193-.916.203-1.394.313.243.671.361 1.086.361h.056l.056-.009c.612-.111 1.061-.185 1.342-.612l.01-.022.014-.021c1.455.375 2.649.436 3.63.363a6.31 6.31 0 0 1 .214-.381l.012-.018.011-.013a.45.45 0 0 1 .257-.168.43.43 0 0 1 .265.023.455.455 0 0 1-.118-.197c-.01-.031-.005-.061-.01-.092-.897.147-2.076.135-4.059-.3.109-.659-.126-1.343-.478-1.81l-.02-.026-.021-.027a.616.616 0 0 1-.082-.1c.887-1.184 2.807-.098 4.069.182 3.355.65 4.45-2.617 3.339-4.693-1.215-2.01-3.332-1.495-5.501-1.064-2.88.477-2.088-1.505-1.53-1.634-1.492.075-1.715 1.429-1.626 2.863-1.018-.35-.91-1.206-.799-1.49-1.49 2.41 1.15 3.41 1.89 3.812 0 0-.934.443-1.137.601-.595-.567-1.287-1.145-1.75-1.294l-.024-.007a3.795 3.795 0 0 0-1.065-.148 2.169 2.169 0 0 0-.501-1.422l-.006-.005-.007-.007-1.74-1.977c-.96-1.104-2.966-.738-3.002.772 0 .08.01.189.027.313-.295-.131-.603-.25-.924-.358l-.028-.01a10.57 10.57 0 0 0-.285-.09c-.014-.006-.029-.01-.04-.013l-.298-.088c-.008 0-.015-.003-.024-.003-.22-.061-.444-.117-.673-.167-.008-.004-.017-.004-.024-.008l-.306-.06c-.024-.006-.049-.01-.076-.015l-.26-.047c-.032-.003-.06-.01-.088-.014a14.727 14.727 0 0 0-.277-.041c-.02-.004-.047-.01-.072-.013-.23-.03-.464-.057-.705-.08l-.092-.006c-.087-.009-.176-.016-.262-.023a3.006 3.006 0 0 1-.124-.008l-.24-.012a3.083 3.083 0 0 0-.129-.007c-.083-.004-.168-.006-.253-.007a2.274 2.274 0 0 0-.115-.004c-.12-.004-.246-.004-.369-.004-2.137 0-4.061.374-5.662 1.078.018-.124.025-.234.025-.313-.032-1.51-2.04-1.876-3.002-.772l-1.742 1.977-.005.007-.004.005a2.19 2.19 0 0 0-.503 1.422 3.795 3.795 0 0 0-1.065.148l-.01.003-.01.004c-.367.116-.869.497-1.354.928-.315-.255-1.353-.472-1.353-.472 1.597-.178 3.095-2.752.221-4.524-3.65-1.507-2.314 2.915-.945 1.055-.992.503-1.04-.702-.24-.702.868 0 .875 1.47-.13 1.426-1.003-.045-1.26-.494-2.353-.693-6.695-1.221-4.877 8.027.12 5.765.794-.36 1.99-1.288 3.322-.952-1.005.932-1.409 2.06-1.271 2.68-1.78.266-5.567-.754-7.164-1.904l.822-.088c-.503-.266-.774-1.641-.774-1.641-.183-.532-.766-1.106-.766-1.106.137-.09.501.043.501.043s.047.357 0-.133c-.045-.485-.543-1.551-.816-1.64.307-.452.409-.805.409-.805-1.047.298-1.094-.4-1.938-.551.21-.148.274-.604.32-.904-.247.25-1.04-.2-1.783.202-.351.2-.299-.052-.896.55h-4.94c-.595-.602-.547-.35-.89-.55-.747-.403-1.543.048-1.791-.202.049.3.432.753.64.902-.396.093-.715.185-.916.42-.197.231-.954.278-.954.278.257.302.657.675.657.675-.534.395-.534 1.142-.613 1.56-.08.419-.475 1.07-.475 1.07.237.049.554.096.791 0-.316.467-1.158 1.96-1.396 3.122 0 0 .516-.122.754-.263.038 1.305.157 2.687.474 3.152l.319-.607c.355.467-.576 1.912-1.45 1.957 0 0-2.135.115-2.534.115-.396 0-.713.235-1.151.512-.437.28-1.433.474-1.706.526-.24.045-.884.2-.895 1.78h-7.052l4.367 1.696-4.367 1.725h15.887v-1.111c1.693.052 3.846.384 6.924 1.163 2.186.539 4.098.618 6.207.618 2.361 0 3.852-1.12 3.884-1.139v-.673a32.02 32.02 0 0 1 4.634.876c.873.255 2.647.717 3.34.717.383.035.774-.062 1.132-.288l.022-.014.022-.016c.307-.226.583-.695.648-1.072.606 0 1.923.84 3.944 1.32 1.365.502 2.895.766 4.53.766.176 0 .35-.003.523-.009.013 0 .024 0 .033-.002 1.427-.052 2.769-.31 3.978-.755 2.019-.48 3.334-1.32 3.94-1.32.067.377.344.846.654 1.072l.018.016.02.014c.36.226.75.323 1.135.288.69 0 2.466-.462 3.34-.717 1.297-.348 4.993-.702 6.612-.876v.673c.03.018 1.52.805 3.882.805.956 0 1.088-.672 2.479.066.728.334 1.988 0 2.781-.27.663-.267 3.111 0 3.111 0 .53.069 1.007-.374 1.191-1.206.48-.084 2.724-.465 3.048-.486v1.56h15.523l-4.37-1.725 4.37-1.695zM170.94 10.244c.168 0 .306.138.306.307 0 .173-.138.31-.306.31a.307.307 0 0 1-.305-.31c0-.169.136-.307.305-.307zm7.805 6.702c-.362-.27-1.256-.709-1.613-.85.065-.134.112-.466.152-.54.855-.227 1.605 1.089 1.778 1.295 0 0-.183.174-.317.095zm-1.4-2.23c.037-.165.1-.522.079-.642 1.455-.17 1.854.804 1.953 1.373-.465-.402-1.62-.738-2.031-.73zm1.636-1.045c-.962-.403-1.179-.32-1.606-.267 0 0 .023-.49-.033-.671 1.293-.537 2.468.403 2.861.705-.132.133-.561.435-1.222.233zm.94-2.052c-.495.336-.877.284-1.462.257-.99-.066-.862.097-1.258.196 0 0-.02-.278-.252-.614 1.194-.736 2.197-.334 2.972.161zm-6.707-4.043l-.317-.098c-.12-.108-.248-.189-.37-.026 0 0-.03.137-.363.277-.102-.736.526-1.075 1.157-1.512.164-.111.394-.289.429-.49-.035.196.887.944-.536 1.85zm1.097 1.112c-.462-.47-.496-1.036.433-1.372.726-.282 1.199-.233 1.199-.233 0 .924-1.6 1.346-1.632 1.605zm1.282 1.003c-.1-.336-.378-.292-.288-.58.529-.804 1.929-.817 2.3-.964.148.277-.05.831-.473.91-.429.069-.536-.012-1.008.354l-.531.28zm.605.56c1.092-.939 2.269-.448 2.67-.359 0 0-.088.46-.75.49-.428.03-1.017.282-1.478.45 0 0-.21-.344-.442-.58zm.357 7.103c.13-.1.28-.399.35-.571.497 0 1.094 1.27 1.28 1.69-.763 0-1.5-.974-1.63-1.12zM157.46 18.36c-.209.32-.562.463-.913.526-.4 0-.688-.16-.945-.48-.08-.206-.129-.479-.031-.703a.81.81 0 0 1 .751-.48c.178.017.384.081.433.272a.4.4 0 0 1 0 .416c-.112.24-.402.29-.639.321l.045.08a.67.67 0 0 0 .688-.13.706.706 0 0 0 .225-.67c-.125-.368-.45-.703-.864-.736-2.097.065-.998 2.539-1.631 3.74-.268.512-.592 1.198-1.52.998 1.424-.605 1.177-2.883 1.177-3.671 0-1.081.645-1.515 1.254-1.69.671-.192 1.314.065 1.747.526.333.45.51 1.153.223 1.68zm-1.12-5.137c-.124-.158-.378-.316-.334-.567 1.508.707 3.505.519 5.028-.018.836-.205 1.888-.047 2.285.774.033.22.049.407-.016.614-.136.03-.136-.126-.165-.207-.61-.786-1.679-.502-2.517-.33-.319.19-.76.111-1.097.253-1.063.33-2.378.189-3.183-.519zm6.597 1.15c-.549.597-1.555.267-2.18.03-.255-.126-.56-.172-.788-.347.013-.237.272-.204.424-.267a4.318 4.318 0 0 1 1.278-.284c.399-.016.78.016 1.085.237a.664.664 0 0 1 .181.63zm-3.596-.221c1.266.204 2.392.976 3.797.614.41-.175.688-.52.885-.929.107-.6-.003-1.213-.443-1.56-1.862-1.576-3.904.551-5.9-.186-.764-.376-.525-.783-.548-1.16.125.325.273.377.414.432 2.13.71 4.295-1.353 6.262.205l.253.217c.442.553.741.93.567 2.004-.213.82-.57 1.39-1.675 1.702-1.997.3-3.563-1.646-5.798.014l-.52-.578c.669-.519 1.748-.996 2.706-.775zm-4.956-.113c.728.235 2.535 2.197 2.535 2.197a1.795 1.795 0 0 0-1.469-.219c-.887.255-1.358.885-1.358 1.826 0 .09.004.197.008.321.027.95.078 2.72-1.094 3.217l-.027.011c.101-.57.156-1.163.156-1.774v-1.053c0-1.532-.317-2.887-.935-4.056.13-.402.99-.806 2.184-.47zm-1.887-1.776c.364.434.54 1.232.036 1.722a1.018 1.018 0 0 0-.418.371 7.493 7.493 0 0 0-2.23-2.445c.26.018.519-.084.722-.294l.009-.01.005-.008c.24-.347.297-.742.163-1.148a1.254 1.254 0 0 0-.242-.402l1.955 2.214zm-3.377-2.273c.65-.41 1.313-.07 1.534.512.114.355.065.702-.149 1.016-.228.237-.525.303-.789.217-.366-.147-.132-.115.065-.181.532-.201.69-1.198-.103-1.198l-.076-.007c-.15.02-.337.095-.344.23 0 0-.03.138.08.065.067-.105.333-.221.516-.063.18.194.106.677-.411.729-.687.055-.842-.932-.323-1.32zm-13.044 0c.52.388.366 1.375-.322 1.32-.518-.052-.593-.535-.408-.73.181-.157.45-.04.514.064.11.073.082-.065.082-.065-.011-.135-.196-.21-.346-.23l-.074.007c-.797 0-.636.997-.107 1.198.2.066.43.034.067.181a.751.751 0 0 1-.788-.217 1.106 1.106 0 0 1-.15-1.016c.22-.582.885-.921 1.532-.512zm-3.375 2.273l1.955-2.214c-.103.113-.186.25-.244.402-.132.406-.074.801.163 1.148l.007.009.007.009c.203.21.462.312.723.294a7.476 7.476 0 0 0-2.227 2.445 1.018 1.018 0 0 0-.422-.371c-.504-.49-.324-1.288.038-1.722zm-1.887 1.776c1.193-.336 2.055.068 2.185.47-.622 1.169-.936 2.524-.936 4.056v1.053c0 .61.055 1.203.154 1.774l-.023-.01c-1.177-.498-1.123-2.268-1.098-3.218.004-.124.008-.231.008-.321 0-.94-.471-1.571-1.358-1.826a1.795 1.795 0 0 0-1.467.219s1.809-1.962 2.535-2.197zm-1.662-2.088c-.027.4-.176.7-.448.91-.47.366-1.285.449-2.491.257-.476-.076-.916-.198-1.34-.315-1.19-.326-2.128-.587-3.044.352-.022-.138-.047-.494.062-.616.887-1.06 1.74-.741 2.89-.37.412.132.842.268 1.3.356 1.166.215 1.957.122 2.413-.287.263-.243.406-.58.433-1.03.149.202.25.376.225.743zm-3.289 1.894c-.048.22-.33.267-.516.362-.856.428-1.883 1.072-2.91.551-.264-.141-.233-.441-.31-.676.032-.333.28-.505.56-.63 1.105-.315 2.148.188 3.176.393zm1.952.788c-1.052-.138-1.575.082-2.366.46-.462.222-.987.5-1.691.698l-.004.003-.01.002c-.904.235-1.873-.163-2.463-1.012-.593-.853-.634-1.912-.11-2.695l.02-.03.02-.028c1.24-1.477 2.612-1.037 3.82-.651.387.125.787.255 1.196.334 1.214.224 1.608.007 1.722-.096.214-.26.647-.596.549-1.267 0 0 .22.224.257.497.067 1.006-.295 1.945-2.643 1.508-1.751-.328-3.113-1.443-4.404.099-.815 1.214.454 3.075 1.878 2.706 1.832-.52 2.386-1.437 4.327-1.178.683.124 1.23.458 1.23.458l-.48.502c-.002-.001-.319-.213-.848-.31zm.149 2.046c.433-.461 1.074-.718 1.745-.526.61.175 1.255.609 1.255 1.69 0 .788-.25 3.066 1.174 3.671-.924.2-1.248-.486-1.516-.998-.634-1.201.462-3.675-1.635-3.74-.415.033-.737.368-.862.736a.71.71 0 0 0 .225.67.67.67 0 0 0 .688.13l.045-.08c-.24-.032-.527-.08-.64-.321a.393.393 0 0 1 0-.416c.051-.19.256-.255.435-.272.317-.014.621.194.75.48.094.224.047.497-.033.704-.255.32-.545.479-.941.479-.355-.063-.706-.207-.913-.526-.288-.528-.114-1.232.223-1.68zm-8.273 2.17c-.136-.51-.018-1.493.078-1.879 1.95 1.072 5.234 1.862 6.962 1.604l.366-.053c.021.05.05.103.076.155l.012.021.013.022c.28.429.73.702 1.34.813l.056.01h.06c.413 0 .77-.12 1.083-.362.009.442.038.889.168 1.297a13.049 13.049 0 0 0-1.57-.15l-.004.03c.544.04 1.085.121 1.614.227.029.083.065.164.103.24l.027.051c.07.138.167.316.288.496-.062.028-.123.057-.186.091-1.1-.305-2.528-.626-3.933-.67l-.002.03c1.322.098 2.647.445 3.705.782a2.202 2.202 0 0 0-.589.589c-1.135-.334-2.736-.73-4.315-.777v.028c1.537.115 3.086.566 4.201.943a2.34 2.34 0 0 0-.23.646c-.969-.273-3.243-.95-5.448-.946v.029c2.205.095 4.452.876 5.405 1.194a3.502 3.502 0 0 0-.011.558c-1.976-.531-4.934-1.075-7.026-.986.625-1.83.016-2.4-.452-2.876l-1.194-.2c1.44.653 1.342 2.513.694 3.166l-.007.01c-.359.065-.67.159-.915.29l-.105.057v.772c-.717.058-2.22.183-3.243.042-1.39-.151-.844-.568-1.637-.92-.844-.353-.547.654-1.44.704-.021.002-.04.002-.06.006-.218-.054-.43-.105-.638-.151-.391-.329-.194-1.08-.047-1.262-1.045-.052-.797 1.204-.996.854-.397-.352-.382-.906-.082-1.156-1.093.302-.697 1.207-.945 1.054-.646-.3-.462-.903-.214-1.207-.445 0-.79.555-.892 1.058-.895-.856.05-1.758.744-1.66 0 0 1.12.274 2.312-.179 2.434-.703 3.698.23 4.54.223 1.144.05 1.044.058 1.144-.397.098-.702.264-.581.264-1.082l.48.278c-.05-.452-.05-1.357-.05-1.657l.496.2zm-11.06 2.295c.013.011.027.03.04.04 0 0-.024-.014-.04-.04-.424-.353-.647-1.54.04-2.262.71-.745.775-.914.775-.914.226.44.485 1.862-.647 2.878-.206.153-.2.248-.168.298zm-.703-3.513a40.118 40.118 0 0 0 1.002-1.285v.102c.032.133.516.743-.486 1.858-.505.564-.516.882-.646 1.084-.127.203-.244.232-.322-.237-.129-.777.065-.913.452-1.522zm-1.193.777c-.42-.508.259-1.725.675-2.265.422-.543.743-.677 1.101-1.354.256 1.32-.422 1.828-.679 2.2-.432.619-.55.911-1.097 1.42zm3.276 1.162c.463.133.595.736.394 1.205-.33.134-.793.134-.99-.067.264-.402.596-.804.596-1.138zm2.278-.889c-.817 0-1.505.352-1.505-.226s.688-1.047 1.505-1.047c.814 0 1.557.469 1.557 1.047s-.743.226-1.557.226zm1.89.955l.2.67c-.265-.135-.729 0-.729 0-.132-.336-.065-.603-.065-.603l.594-.067zm-1.344.862s-.441.076-.64.01l.065-.739h.467l.108.73zm-1.75-.664l.711-.065c.067.201-.132.805-.132.805l-.58.13c.084-.204 0-.87 0-.87zm5.406-1.58c.462.285 1.08.648 1.452.937.372.291.1.921.116 1.007.017.086-.101.155-.184.034-.084-.12-.59-.443-1.112-.698-1.188-.698-1.184-1.736-1.121-2.099-.022.002-.034.016-.042.05 0 0 .118-.409.051-.102-.004.018-.007.034-.009.052.121-.003.474.584.85.819zm-.634-3.041c.019.091 1.29.858 2.119 1.77.693.763.583 1 .529 1.411 0 0-.44-.215-1.06-.535-.9-.5-1.41-1.271-1.62-1.842 0 0-.07-.519.032-.804zm1.215 5.565c.167.085-.047.04-.235.12-.473.205-1.045-.256-1.38-.289-.375-.114-.81-.768-.677-1.757.272-.173.388.971 2.292 1.926zm1.206-4.524c-.313-.413-1.1-.987-1.448-1.277-.346-.287-.657-.377-.674-1.76.098.288.592.667 1.612 1.401 1.02.736 1.25 1.403 1.316 2.39-.51 0-.494-.341-.806-.754zm.647-1.612c-.518-.395-1.121-.796-1.27-.95-.545-.57-1.36-.553-1.343-1.488.297.19.751.395 1.394.617.64.223 1.029.713 1.219 1.82zm-2.112-3.826c1.454.393 1.563.996 1.483 1.596 0 0-.966-.458-1.765-.695 0 0 .313-.476.282-.901zm-3.067 2.81a.35.35 0 0 1 .35-.354c.19 0 .347.158.347.354a.351.351 0 0 1-.347.351.35.35 0 0 1-.35-.351zm-3.493-2.61c-.029-.283.087-.43.261-.525a5.514 5.514 0 0 1 1.775-.253 5.5 5.5 0 0 1 1.77.253c.172.095.29.242.265.524 1.389-1.517 2.167-1.612 2.144-.307-.022 1.307-.726.64-.871.158 0 0 .038 2.528.023 2.953-.012.43-.141 1.352-1.363 1.426.528.066.894.235 1.025.402.067.135.101.402-.1.436a13.392 13.392 0 0 0-.96-.066c.2.133.497.181.661.226.2.085.299.176.299.176s0 .336-.13.469c-.133 0-.728-.302-1.027-.302 0 0 .447.2.746.628.148.202.22.464-.112.464 0 0-.26-.087-.424-.253-.565-.47-1.481-.378-1.778-.544-.167-.101.076-.553.342-.553.793 0 .848-.762.857-1.067 0 0-.198-1.052.597-.977.795.08.822-.633.848-1.44 0 0-.142.042-1.034.058-.89.014-1.061-.512-1.042-1.036l-.134 3.754c.127.104-.24.182-.602.18-.364.002-.732-.076-.603-.18l-.138-3.754c.018.524-.15 1.05-1.043 1.036-.89-.016-1.034-.057-1.034-.057.029.806.054 1.518.851 1.44.793-.076.598.976.598.976.01.305.061 1.067.854 1.067.268 0 .51.452.343.553-.297.166-1.214.075-1.777.544-.163.166-.425.253-.425.253-.332 0-.261-.262-.11-.464.298-.429.745-.628.745-.628-.297 0-.896.302-1.026.302-.133-.133-.133-.469-.133-.469s.102-.091.3-.176c.162-.045.463-.093.658-.226-.132 0-.66.032-.958.066-.197-.034-.166-.301-.1-.436.131-.167.497-.336 1.027-.402-1.222-.074-1.349-.996-1.363-1.426-.018-.425.024-2.953.024-2.953-.147.481-.848 1.15-.873-.158-.024-1.305.755-1.21 2.147.307zm.583 2.61a.35.35 0 0 1-.347.351.349.349 0 0 1-.348-.351.35.35 0 0 1 .348-.354.35.35 0 0 1 .347.354zm-3.65-1.543c.29-.202.387-.779.387-.508.129.237.453.643.42.846-.032.203-.807 1.456-1.356 1.048-.065-.371.257-1.183.549-1.386zm-1.097 4.16c-.033-.946 1.13-2.197 2.261-3.01.29-.21-.034 1.082-.742 1.759-.714.677-.938 1.185-1.52 1.251zm-6.99 7.293c0-.253.227-.374.583-.444.538-.116 1.313-.287 1.697-.531l.125-.083c.35-.224.538-.343.724-.343.406 0 2.475-.109 2.564-.114.777-.044 1.764-.383 2.066-1.056l.04.068v1.007c.197-.538.596-.74.862-.806 0 .603.197 1.072.197 1.34.198-.403.53-.737.862-.737-.05.349-.063.842-.067 1.324-2.72-.4-4.427-.255-6.01.129a.573.573 0 0 0-.195-.23c-.447.302-.549 1.106-.398 1.257 0 0-.198.052-.386.052-.695-.22-.304-.874-.172-1.004-.35.043-.609.305-.652.828.002.111-.015.167-.049.19h-.181c-.025-.003-.049-.01-.08-.014-.695-.22-.306-.874-.173-1.004-.348.043-.609.305-.652.828 0 .117-.04.172-.122.19h-.197c-.03-.003-.069-.007-.109-.014-.398-.203-.327-.582-.277-.833zm4.46 3.504h-9.53l2.76-1.088-3.359-1.357h10.13v2.445zm3.55.528l-3.353-.517c.958-.233 1.981-.393 3.352-.372v.89zm13.33.22c-1.806.094-3.707-.01-6.159-.613-5.825-1.476-8.34-1.34-10.498-.804v-2.864c2.158-.537 4.673-.671 10.498.804 2.195.54 4.015.598 5.637.412l-.016 2.27 2.77.286s-.726.469-2.232.508zm3.645-.622l-3.729-.363c.811-.325 2.267-.344 3.785-.197l-.056.56zm-3.957-.937v-2.78c1.595-.843 6.052-.138 8.898.642.2.741.549 2.149 1.917 3.312-2.352-.907-8.88-2.203-10.815-1.174zm9.495-2.201c-.264-2.18 1.688-2.38 2.673-2.252a8.442 8.442 0 0 0 1.746 3.587c-.26-.197-.649-.373-1.203-.387-.58 0-1.063.22-1.349.623-.199.28-.291.626-.262.97-.58-.437-1.438-1.604-1.605-2.541zm4.701 1.978c-.407-.212-1.477-.601-2.091-.108-.475.403-.294 1.202.337 1.135.162-.021.363-.104.374-.251 0 0 .031-.147-.087-.068-.072.113-.36.237-.56.066-.196-.21-.113-.732.445-.788.746-.06.912 1.009.35 1.433-.705.441-1.422.073-1.661-.559-.252-.772.202-1.745 1.408-1.745 1.268.032 1.601.943 1.485.885zm8.275 2.758c-5.74 0-10.392-3.332-10.392-9.146v-1.053c0-5.814 4.652-8.51 10.392-8.51 5.742 0 10.395 2.696 10.395 8.51v1.053c0 5.814-4.653 9.146-10.395 9.146zm11.172-1.898c-.237.632-.96 1-1.662.559-.565-.424-.397-1.492.35-1.433.56.056.642.578.441.788-.194.17-.483.047-.556-.066-.121-.08-.09.068-.09.068.012.147.213.23.378.251.627.067.808-.732.333-1.135-.612-.493-1.682-.104-2.091.108-.114.058.217-.853 1.485-.885 1.206 0 1.66.973 1.412 1.745zm.2-.296a1.455 1.455 0 0 0-.26-.971c-.29-.402-.767-.623-1.352-.623-.55.014-.94.19-1.203.387a8.446 8.446 0 0 0 1.748-3.587c.983-.129 2.935.072 2.67 2.252-.164.937-1.022 2.104-1.604 2.542zm.284.833c1.37-1.163 1.72-2.57 1.92-3.312 2.407-.661 7.383-1.266 9.828-.927l-.033.01c.049.3.101 1.155.148 1.505l-.843.254.302.96c-3.154-.266-9.365.756-11.322 1.51zm8.785-.768c1.52-.148 2.973-.128 3.788.197l-3.734.363-.054-.56zm1.639.61l2.184-.251.5.353c-.649.4-2.335.151-2.684-.102zm3.375-.603c-.15.199-.348.251-.596-.1-.096-.2-.695-.956-1.09-1.157.844-.201 1.615-.625 2.756.582-.297.1-.92.375-1.07.675zm7.05-3.533c.904-.069 1.955-.439 2.96-.986.461-.255 1.733-.135 2.154.082l-.056-.046.087.06c-.007-.005-.022-.008-.03-.014l.036.03c.143.114.458.367.711.583-1.045-.049-5.562.506-6.754.707 0 0 .594-.373.891-.416zm.41 2.195l-.002.007a13.406 13.406 0 0 0-.767-.495l-.013-.33c-.004-.13.004-.146.138-.166.19-.032.327-.059.492.054.259.174.279.627.152.93zm.797.769l-.015-.085c-.092-.133-.253-.278-.447-.432.01-.008.022-.015.033-.022.414-.302.507-.819.315-1.102-.237-.36-.714-.399-1.222-.32l-1.105.172c-.219-.138-.39-.256-.467-.337 3.444-.743 10.359-1.363 12.126-.551v2.576c-1.361-.626-5.551-.388-9.218.1zm3.353 1.474v-1.311c2.052-.158 3.95-.181 5.121.038-.29.377-1.001.845-5.12 1.273zm12.6-.507h-7.36c.661-.097.83-.23.886-.499v-1.946h7.07l-3.36 1.357 2.763 1.088z" fill="#FFF"></path>
               </g>
            </svg>
<svg height="16" viewBox="0 0 32 32" width="16" xmlns="http://www.w3.org/2000/svg">
                  <title>twitter</title>
                  <path d="M32 6.371c-1.16.525-2.139.542-3.177.023 1.34-.811 1.4-1.38 1.884-2.916a12.91 12.91 0 0 1-4.115 1.596A6.431 6.431 0 0 0 21.864 3c-3.578 0-6.479 2.94-6.479 6.564 0 .515.058 1.016.167 1.496C10.167 10.787 5.394 8.173 2.2 4.2a6.612 6.612 0 0 0-.879 3.302 6.584 6.584 0 0 0 2.883 5.463 6.402 6.402 0 0 1-2.934-.82l-.001.082c0 3.18 2.234 5.833 5.198 6.437a6.43 6.43 0 0 1-2.927.112c.825 2.607 3.218 4.505 6.052 4.559A12.903 12.903 0 0 1 0 26.052 18.167 18.167 0 0 0 9.93 29c11.919 0 18.433-10.001 18.433-18.675 0-.286-.004-.566-.017-.85C29.61 8.551 31.132 7.69 32 6.371" fill="currentColor" fill-rule="evenodd"></path>
               </svg>
<svg height="16" viewBox="0 0 32 32" width="16" xmlns="http://www.w3.org/2000/svg">
                  <title>facebook</title>
                  <path d="M18.7 17.4h5.1l.7-5.6h-5.8V8.1c0-1.6.5-2.7 2.8-2.7h3V.2c-.5 0-2.3-.2-4.4-.2-4.4 0-7.9 2.7-7.9 7.7v4.1H7.6v5.6h4.6V32h6.5V17.4z" fill="currentColor"></path>
               </svg>
<svg height="16" viewBox="0 0 32 32" width="16" xmlns="http://www.w3.org/2000/svg">
                  <title>slice</title>
                  <g fill="currentColor" stroke="currentColor">
                     <path d="M8.5 2.9h15c1.6 0 3 .7 3.9 1.7 1 .9 1.7 2.3 1.7 3.9v15c0 1.6-.7 3-1.7 3.9-.9 1-2.3 1.7-3.9 1.7h-15c-1.6 0-3-.7-3.9-1.7-1-.9-1.7-2.3-1.7-3.9v-15c0-1.6.7-3 1.7-3.9.9-1.1 2.3-1.7 3.9-1.7m15-1.9h-15C4.4 1 1 4.4 1 8.5v15C1 27.6 4.4 31 8.5 31h15c4.1 0 7.5-3.4 7.5-7.5v-15C31 4.4 27.6 1 23.5 1" stroke-width="2"></path>
                     <path d="M16 21c-1.4 0-2.6-.6-3.5-1.5-.9-.9-1.5-2.1-1.5-3.5s.6-2.6 1.5-3.5c.9-.9 2.2-1.5 3.5-1.5 1.4 0 2.6.6 3.5 1.5.9.9 1.5 2.2 1.5 3.5 0 1.4-.6 2.6-1.5 3.5-.9.9-2.1 1.5-3.5 1.5m0-12c-3.9 0-7 3.1-7 7s3.1 7 7 7 7-3.1 7-7-3.1-7-7-7" stroke-width="2"></path>
                     <path d="M24 9.5c-.8 0-1.5-.7-1.5-1.5s.7-1.5 1.5-1.5 1.5.7 1.5 1.5-.7 1.5-1.5 1.5m0-4c-1.4 0-2.5 1.1-2.5 2.5s1.1 2.5 2.5 2.5 2.5-1.1 2.5-2.5-1.1-2.5-2.5-2.5"></path>
                  </g>
               </svg>
<svg height="14" viewBox="0 0 32 32" width="14" xmlns="http://www.w3.org/2000/svg">
                        <title>Stroke 4625</title>
                        <path d="M6.121 7.879A3 3 0 0 0 1.88 12.12l12 12a3 3 0 0 0 4.242 0l12-12a3 3 0 1 0-4.242-4.24L16 17.757 6.121 7.88z" fill="currentColor"></path>
                     </svg>
<svg height="14" viewBox="0 0 32 32" width="14" xmlns="http://www.w3.org/2000/svg">
                        <title>Stroke 4625</title>
                        <path d="M6.121 7.879A3 3 0 0 0 1.88 12.12l12 12a3 3 0 0 0 4.242 0l12-12a3 3 0 1 0-4.242-4.24L16 17.757 6.121 7.88z" fill="currentColor"></path>
                     </svg>
<svg height="14" viewBox="0 0 32 32" width="14" xmlns="http://www.w3.org/2000/svg">
                        <title>Stroke 4625</title>
                        <path d="M6.121 7.879A3 3 0 0 0 1.88 12.12l12 12a3 3 0 0 0 4.242 0l12-12a3 3 0 1 0-4.242-4.24L16 17.757 6.121 7.88z" fill="currentColor"></path>
                     </svg>
<svg height="14" viewBox="0 0 32 32" width="14" xmlns="http://www.w3.org/2000/svg">
                        <title>Stroke 4625</title>
                        <path d="M6.121 7.879A3 3 0 0 0 1.88 12.12l12 12a3 3 0 0 0 4.242 0l12-12a3 3 0 1 0-4.242-4.24L16 17.757 6.121 7.88z" fill="currentColor"></path>
                     </svg>
